<svg xmlns="http://www.w3.org/2000/svg" xmlns:xlink="http://www.w3.org/1999/xlink" id="svg5" width="146.1587" height="106.8418" version="1.1" viewBox="0 0 146.1587 106.8418">
  <defs id="defs2">
    <radialGradient id="radialGradient1004" cx="76.7318" cy="70.2176" r="53.1757" fx="76.7318" fy="70.2176" gradientTransform="matrix(1.15866 0 0 1.1639 -11.292 -11.6652)" gradientUnits="userSpaceOnUse" xlink:href="#linearGradient1002"/>
    <radialGradient id="radialGradient21083" cx="73.4477" cy="79.6142" r="8.5742" fx="73.4477" fy="79.6142" gradientTransform="matrix(1.6483 .01946 -.01934 1.63846 -50.1354 -54.1511)" gradientUnits="userSpaceOnUse" xlink:href="#linearGradient68994"/>
    <radialGradient id="radialGradient25047" cx="73.9398" cy="82.3085" r="11.0557" fx="73.9398" fy="82.3085" gradientTransform="matrix(1.49746 -.00596 .00533 1.33795 -41.5643 -31.323)" gradientUnits="userSpaceOnUse" xlink:href="#linearGradient68994"/>
    <radialGradient id="radialGradient68476" cx="71.1765" cy="71.1754" r="21.138" fx="71.1765" fy="71.1754" gradientTransform="matrix(1 0 0 1.81404 -12.576 -75.6977)" gradientUnits="userSpaceOnUse" xlink:href="#linearGradient68474"/>
    <radialGradient id="radialGradient69857" cx="76.7318" cy="70.2176" r="53.1757" fx="76.7318" fy="70.2176" gradientTransform="matrix(.83538 0 0 .8355 11.7174 11.7092)" gradientUnits="userSpaceOnUse" xlink:href="#linearGradient70472"/>
    <linearGradient id="linearGradient70472">
      <stop id="stop70466" offset="0" stop-color="#eae7e0" stop-opacity="1"/>
      <stop id="stop71276" offset=".4149" stop-color="#dad7ce" stop-opacity="1"/>
      <stop id="stop70468" offset=".8722" stop-color="#827661" stop-opacity="1"/>
      <stop id="stop70470" offset="1" stop-color="#d4d0c8" stop-opacity="1"/>
    </linearGradient>
    <linearGradient id="linearGradient68994">
      <stop id="stop68988" offset="0" stop-color="#c6cacc" stop-opacity="1"/>
      <stop id="stop68990" offset=".5697" stop-color="#978e89" stop-opacity="1"/>
      <stop id="stop68992" offset="1" stop-color="#5f5048" stop-opacity="1"/>
    </linearGradient>
    <linearGradient id="linearGradient68474">
      <stop id="stop68470" offset="0" stop-color="#eae7e0" stop-opacity="1"/>
      <stop id="stop68798" offset=".5896" stop-color="#bfb69b" stop-opacity="1"/>
      <stop id="stop68472" offset="1" stop-color="#7d7663" stop-opacity="1"/>
    </linearGradient>
    <linearGradient id="linearGradient1002">
      <stop id="stop998" offset="0" stop-color="#ffc922" stop-opacity="1"/>
      <stop id="stop2416" offset=".4734" stop-color="#eee3c5" stop-opacity="1"/>
      <stop id="stop1966" offset=".8971" stop-color="#a8a7a5" stop-opacity="1"/>
      <stop id="stop1000" offset="1" stop-color="#e8ddd6" stop-opacity="1"/>
    </linearGradient>
    <linearGradient id="linearGradient8132">
      <stop id="stop8128" offset="0" stop-color="#ffce00" stop-opacity="1"/>
      <stop id="stop8130" offset="1" stop-color="#ffce00" stop-opacity="0"/>
    </linearGradient>
  </defs>
  <g id="layer1" fill="none" transform="translate(-35.7443 -34.6891)">
    <path id="path1563" stroke="#000" stroke-linecap="butt" stroke-linejoin="miter" stroke-opacity="0" stroke-width="1" d="M9.802 104.703c11.1895-5.7428 23.735-8.8215 36.3119-8.911a132.8835 132.8835 0 0 1 1.5594 0c6.3836.0293 12.8283.213 19.0855-1.0515 6.2573-1.2646 12.4247-4.1503 16.3353-9.196 2.7658-3.5686 4.2519-8.0637 4.4042-12.5762.1524-4.5124-.997-9.0304-3.0676-13.0426-2.0775-4.0255-5.0322-7.5167-7.8212-11.0864-2.789-3.5696-5.4754-7.3302-6.8818-11.6363-2.2717-6.9557-.7984-15.0156 3.7872-20.7179"/>
    <path id="path1567" stroke="#000" stroke-linecap="butt" stroke-linejoin="miter" stroke-opacity="0" stroke-width="1" d="M31.4109 132.995c-.8394-4.1396-.4892-8.5135.9982-12.4669 1.4874-3.9533 4.1072-7.4733 7.4671-10.033 3.4027-2.5923 7.467-4.1671 11.5591-5.4133 4.0921-1.2462 8.2793-2.2 12.2776-3.7204C72.2705 98.107 79.8062 92.3182 88.6634 90c2.2006-.576 4.4793-.93 6.7495-.7861 2.2702.1438 4.5388.8063 6.394 2.1227 1.7643 1.252 3.097 3.0543 3.9771 5.0305.88 1.9762 1.325 4.1246 1.5224 6.2788.3948 4.3086-.1787 8.6534.0698 12.973.4712 8.1873 4.0128 16.162 9.771 22.0013 5.7583 5.8394 13.6826 9.4922 21.8627 10.0778"/>
    <path id="path1571" stroke="#000" stroke-linecap="butt" stroke-linejoin="miter" stroke-opacity="0" stroke-width="1" d="M155.495 132.5495c-8.371 1.9876-17.1554 2.2168-25.6188.6683-3.905-.7144-7.8345-1.8472-11.0365-4.194-1.601-1.1733-2.9983-2.645-3.9798-4.3702-.9815-1.7253-1.5364-3.7094-1.4688-5.6932.0747-2.1906.8866-4.2791 1.6572-6.331.7705-2.052 1.5202-4.176 1.4616-6.367-.0699-2.613-1.2958-5.0784-2.8908-7.1492-1.5951-2.071-3.56-3.821-5.3921-5.6854-1.832-1.8646-3.5684-3.8999-4.5562-6.32-.494-1.21-.7922-2.5077-.7949-3.8147-.003-1.307.297-2.6233.936-3.7634.5899-1.0525 1.4604-1.9392 2.4758-2.591 1.0154-.6518 2.1727-1.0718 3.3624-1.2728 2.3794-.402 4.8428.0696 7.0826.9678 3.629 1.4552 6.7219 3.9769 9.608 6.6147 2.886 2.638 5.6478 5.4456 8.882 7.6427 4.532 3.0785 9.9306 4.8661 15.4042 5.1007 5.4736.2346 11.0053-1.0846 15.784-3.764"/>
    <path id="path1575" stroke="#000" stroke-linecap="butt" stroke-linejoin="miter" stroke-opacity="0" stroke-width="1" d="M166.1881 70.6188c-2.3517 3.9203-5.7766 7.1895-9.802 9.3564-5.2131 2.8065-11.3896 3.7229-17.2236 2.714-5.834-1.009-11.3006-3.9111-15.5239-8.0605-1.925-1.8912-3.595-4.0278-5.5105-5.9286-1.9155-1.9007-4.1425-3.5944-6.742-4.319-2.0158-.5617-4.1445-.5125-6.2364-.4555-2.0918.057-4.2194.1132-6.2388-.4355-2.0204-.549-3.8605-1.6991-5.3092-3.2106-1.4487-1.5115-2.5111-3.376-3.165-5.3648-1.3076-3.978-.972-8.3546.2316-12.3652 2.1715-7.2357 7.1952-13.5733 13.7442-17.339 6.549-3.7657 14.5535-4.9193 21.8994-3.156"/>
    <path id="path1579" stroke="#000" stroke-linecap="butt" stroke-linejoin="miter" stroke-opacity="0" stroke-width="1" d="M65.7178 130.3218c-.7413-.4369-1.3254-1.1245-1.6703-1.9128s-.4542-1.6727-.3483-2.5266c.2119-1.7079 1.2719-3.2364 2.6464-4.2718 1.3746-1.0353 3.0417-1.62 4.727-1.968 1.6854-.3479 3.4073-.4735 5.1155-.6822 2.684-.3279 5.343-.8622 8.038-1.0815 2.695-.2193 5.4659-.1117 8.0082.8091 1.2711.4605 2.4745 1.1237 3.502 2.0024 1.0274.8787 1.876 1.9761 2.4102 3.218.5342 1.242.7472 2.6294.5479 3.9666-.1994 1.3372-.8193 2.618-1.7885 3.5606-1.374 1.3366-3.3574 1.9163-5.274 1.8947-1.9168-.0217-3.7864-.5916-5.5697-1.2945-1.7833-.703-3.5133-1.5444-5.3322-2.1492-1.819-.6047-3.761-.9692-5.6557-.6787-1.5978.245-3.0872.9418-4.6456 1.371-.7792.2147-1.5829.363-2.391.3491-.808-.0139-1.6236-.1959-2.3199-.6062z"/>
    <path id="path1583" stroke="#000" stroke-linecap="butt" stroke-linejoin="miter" stroke-opacity="0" stroke-width=".9554" d="M46.0283 68.7862c-1.1854.0388-2.3757-.2862-3.3943-.8938-1.0186-.6075-1.865-1.4928-2.4552-2.5215-1.1805-2.0575-1.2934-4.6383-.5291-6.8839.7643-2.2456 2.3481-4.1608 4.2685-5.5532 1.9204-1.3925 4.166-2.2877 6.4669-2.8644 1.7397-.436 3.5342-.6977 5.326-.618 1.7917.0797 3.5844.5103 5.1463 1.3918 1.562.8816 2.8826 2.2305 3.5946 3.8766.7121 1.6462.78 3.59.049 5.228-.479 1.0732-1.277 1.9859-2.2107 2.6998-.9337.7139-2.001 1.2373-3.1006 1.6522-2.1993.83-4.5444 1.2408-6.7134 2.1468-1.0626.444-2.0734 1.0029-3.1274 1.4667-1.054.4638-2.1696.8354-3.3206.873z"/>
    <path id="path1845" stroke-width="2.538" d="M133.25 97l-198.4356 59.6232-118.0251-170.2989 125.4921-164.8737 195.5835 68.4013z" transform="translate(23.1683 16.9307)"/>
  </g>
  <g id="layer2" fill-opacity="1" display="inline" transform="translate(-12.576 -17.7584)">
    <path id="jupiter-interior" fill="#533c00" stroke-width=".4701" d="M72.616 145.452l-.0063-.342v-34.8082A25.4046 40.9128 0 0 1 47.206 69.3893a25.4046 40.9128 0 0 1 25.4037-40.9126 25.4046 40.9128 0 0 1 25.4038 40.9126 25.4046 40.9128 0 0 1-25.4038 40.9126V145.11z" display="inline"/>
    <path id="jupiter-atmosphere-right-2" fill="#e8d2b9" stroke-width=".7681" d="M58.5996 106.834A29.4465 53.417 0 0 0 88.047 53.418 29.4465 53.417 0 0 0 58.5996 0v15.0723A21.138 38.345 0 0 1 79.7383 53.418a21.138 38.345 0 0 1-21.1387 38.3437z" display="inline" transform="translate(12.576 17.7584)"/>
    <path id="jupiter-mantle-right-2" fill="url(#radialGradient68476)" stroke-width=".5514" d="M58.5996 91.7617A21.138 38.345 0 0 0 79.7383 53.418a21.138 38.345 0 0 0-21.1387-38.3457V45.166a4.5488 8.2517 0 0 1 .0078-.002 8.2508 8.2508 0 0 1 8.25 8.252 8.2508 8.2508 0 0 1-8.207 8.246 4.5488 8.2517 0 0 1-.0117.002 4.5488 8.2517 0 0 1-.0313.004 4.5488 8.2517 0 0 1-.0078-.002z" transform="translate(12.576 17.7584)"/>
    <path id="jupiter-core-left" fill="url(#radialGradient25047)" stroke="none" stroke-dasharray="none" stroke-miterlimit="4" stroke-opacity="1" stroke-width="12.0891" d="M71.2059 62.9233a8.275 8.2517 0 0 1 .402.0102 8.274 8.2508 0 0 0-.402-.0102zm0 0a8.275 8.2517 0 0 0-8.276 8.2511 8.275 8.2517 0 0 0 8.276 8.2526 4.5616 8.2517 0 0 1-4.5612-8.2511 4.5616 8.2517 0 0 1 4.5612-8.2526zm0 16.5037a8.275 8.2517 0 0 0 5.4354-2.035 8.274 8.2508 0 0 1-5.3916 2.0292 4.5616 8.2517 0 0 1-.0117.0015 4.5616 8.2517 0 0 1-.0321.0044zm5.4354-2.035a8.275 8.2517 0 0 0 2.095-2.802 8.274 8.2508 0 0 1-2.095 2.802zm2.095-2.802a8.275 8.2517 0 0 0 .4107-1.0992 8.274 8.2508 0 0 1-.4108 1.0992zm.4107-1.0992a8.275 8.2517 0 0 0 .2485-1.1458 8.274 8.2508 0 0 1-.2485 1.1458zm-7.4894-10.5544a8.275 8.2517 0 0 1 .3348.0248 8.274 8.2508 0 0 0-.3348-.0248zm.3348.0248a8.274 8.2508 0 0 1 .1535.0175 8.275 8.2517 0 0 0-.1535-.0175zm.1535.0175a8.275 8.2517 0 0 1 .2427.0291 8.274 8.2508 0 0 0-.2427-.0291zm.2427.0291a8.274 8.2508 0 0 1 .1271.0219 8.275 8.2517 0 0 0-.1271-.0219zm.1271.0219a8.275 8.2517 0 0 1 .2837.0496 8.274 8.2508 0 0 0-.2837-.0496zm.3553.0641a8.275 8.2517 0 0 1 .3201.0715 8.274 8.2508 0 0 0-.3201-.0715zm.4035.0933a8.275 8.2517 0 0 1 .2894.0802 8.274 8.2508 0 0 0-.2894-.0802zm.2894.0802a8.274 8.2508 0 0 1 .1082.0335 8.275 8.2517 0 0 0-.1082-.0335zm.1082.0335a8.275 8.2517 0 0 1 .2734.089 8.274 8.2508 0 0 0-.2734-.089zm.2734.089a8.274 8.2508 0 0 1 .1126.0408 8.275 8.2517 0 0 0-.1126-.0408zm.1126.0408a8.275 8.2517 0 0 1 .2529.0977 8.274 8.2508 0 0 0-.253-.0977zm.2529.0977a8.274 8.2508 0 0 1 .1199.0495 8.275 8.2517 0 0 0-.12-.0495zm.1199.0495a8.275 8.2517 0 0 1 .266.1181 8.274 8.2508 0 0 0-.266-.118zm.266.1181a8.274 8.2508 0 0 1 .0819.038 8.275 8.2517 0 0 0-.0819-.038zm.0819.038a8.275 8.2517 0 0 1 .2456.1224 8.274 8.2508 0 0 0-.2456-.1225zm.2456.1224a8.274 8.2508 0 0 1 .1433.0758 8.275 8.2517 0 0 0-.1433-.0758zm.1433.0758a8.275 8.2517 0 0 1 .174.0976 8.274 8.2508 0 0 0-.174-.0976zm.174.0976a8.274 8.2508 0 0 1 .1724.102 8.275 8.2517 0 0 0-.1725-.102zm.1724.102a8.275 8.2517 0 0 1 .2456.156 8.274 8.2508 0 0 0-.2456-.156zm.2968.1881a8.275 8.2517 0 0 1 .3114.2187 8.274 8.2508 0 0 0-.3114-.2187zm.326.2304a8.275 8.2517 0 0 1 .291.2245 8.274 8.2508 0 0 0-.291-.2245zm.3231.2507a8.275 8.2517 0 0 1 .2339.2012 8.274 8.2508 0 0 0-.234-.2012zm.9195.882a8.275 8.2517 0 0 1 .2223.258 8.274 8.2508 0 0 0-.2223-.258zm.2223.258a8.275 8.2517 0 0 1 .247.3164 8.274 8.2508 0 0 0-.247-.3164zm.2587.331a8.275 8.2517 0 0 1 .2193.3105 8.274 8.2508 0 0 0-.2193-.3106zm.2515.3615a8.275 8.2517 0 0 1 .1564.2449 8.274 8.2508 0 0 0-.1564-.245zm.1564.2449a8.274 8.2508 0 0 1 .1023.172 8.275 8.2517 0 0 0-.1023-.172zm.1023.172a8.275 8.2517 0 0 1 .098.1735 8.274 8.2508 0 0 0-.098-.1735zm.098.1735a8.274 8.2508 0 0 1 .0833.1574 8.275 8.2517 0 0 0-.0833-.1574zm.0833.1574a8.275 8.2517 0 0 1 .098.194 8.274 8.2508 0 0 0-.098-.194zm.098.194a8.274 8.2508 0 0 1 .0774.1646 8.275 8.2517 0 0 0-.0774-.1647zm.0774.1646a8.275 8.2517 0 0 1 .0936.21 8.274 8.2508 0 0 0-.0936-.21zm.0936.21a8.274 8.2508 0 0 1 .0512.1253 8.275 8.2517 0 0 0-.0512-.1253zm.0512.1253a8.275 8.2517 0 0 1 .1067.2756 8.274 8.2508 0 0 0-.1067-.2756zm.1067.2756a8.274 8.2508 0 0 1 .0292.0787 8.275 8.2517 0 0 0-.0292-.0787zm.0292.0787a8.275 8.2517 0 0 1 .095.2886 8.274 8.2508 0 0 0-.095-.2886zm.095.2886a8.274 8.2508 0 0 1 .0322.105 8.275 8.2517 0 0 0-.0321-.105zm.0322.105a8.275 8.2517 0 0 1 .0804.2886 8.274 8.2508 0 0 0-.0804-.2886zm.1023.3717a8.275 8.2517 0 0 1 .0717.3193 8.274 8.2508 0 0 0-.0717-.3193zm.0863.3907a8.275 8.2517 0 0 1 .0497.2828 8.274 8.2508 0 0 0-.0497-.2828zm.0497.2828a8.274 8.2508 0 0 1 .022.1269 8.275 8.2517 0 0 0-.022-.1269zm.022.1269a8.275 8.2517 0 0 1 .0292.242 8.274 8.2508 0 0 0-.0293-.242zm.0292.242a8.274 8.2508 0 0 1 .0175.153 8.275 8.2517 0 0 0-.0175-.153zm.0175.153a8.275 8.2517 0 0 1 .0248.3339 8.274 8.2508 0 0 0-.0248-.3339zm.0278.3834a8.275 8.2517 0 0 1 .0102.401 8.274 8.2508 0 0 0-.0102-.401z" display="inline"/>
    <path id="jupiter-core-right" fill="url(#radialGradient21083)" stroke="none" stroke-opacity="0" stroke-width=".3443" d="M71.1825 62.9233a4.5488 8.2517 0 0 1 .2041.0088 4.5488 8.2517 0 0 1 .2041.0247 4.5488 8.2517 0 0 1 .2027.0423 4.5488 8.2517 0 0 0-.2027-.0423 4.5488 8.2517 0 0 0-.204-.0247 4.5488 8.2517 0 0 0-.2042-.0088zm0 0a4.5488 8.2517 0 0 0-4.5483 8.2526 4.5488 8.2517 0 0 0 4.5483 8.2511 4.5488 8.2517 0 0 0 .0321-.0044 4.5488 8.2517 0 0 0 .0117-.0015 8.2508 8.2508 0 0 0 8.2074-8.2467 8.2508 8.2508 0 0 0-8.2512-8.2511zm.8893.1603a4.5488 8.2517 0 0 1 .1137.0437 4.5488 8.2517 0 0 0-.1137-.0437zm.4126.1866a4.5488 8.2517 0 0 1 .0845.0452 4.5488 8.2517 0 0 0-.0845-.0452zm.185.1079a4.5488 8.2517 0 0 1 .0876.0554 4.5488 8.2517 0 0 0-.0875-.0554zm.1954.1327a4.5488 8.2517 0 0 1 .0788.0568 4.5488 8.2517 0 0 0-.0788-.0568zm.1546.1166a4.5488 8.2517 0 0 1 .1312.1093 4.5488 8.2517 0 0 0-.1312-.1093zm.1516.1268a4.5488 8.2517 0 0 1 .153.1414 4.5488 8.2517 0 0 0-.153-.1414zm.1924.1793a4.5488 8.2517 0 0 1 .1502.156 4.5488 8.2517 0 0 0-.1502-.156zm.1574.1647a4.5488 8.2517 0 0 1 .1677.191 4.5488 8.2517 0 0 1 .14.1735 4.5488 8.2517 0 0 0-.14-.1735 4.5488 8.2517 0 0 0-.1677-.191zm.379.4593a4.5488 8.2517 0 0 1 .0948.1326 4.5488 8.2517 0 0 0-.0947-.1326zm.1502.2128a4.5488 8.2517 0 0 1 .1167.1764 4.5488 8.2517 0 0 0-.1167-.1764zm.1341.2055a4.5488 8.2517 0 0 1 .1181.1925 4.5488 8.2517 0 0 0-.118-.1925zm.1779.2989a4.5488 8.2517 0 0 1 .0743.1356 4.5488 8.2517 0 0 0-.0743-.1356zm.1341.2478a4.5488 8.2517 0 0 1 .1064.2129 4.5488 8.2517 0 0 0-.1064-.2129zm.1166.2333a4.5488 8.2517 0 0 1 .1167.2522 4.5488 8.2517 0 0 0-.1167-.2522zm.1356.2959a4.5488 8.2517 0 0 1 .0991.2376 4.5488 8.2517 0 0 0-.099-.2376zm.1268.3032a4.5488 8.2517 0 0 1 .07.1837 4.5488 8.2517 0 0 0-.07-.1837zm.223.621a4.5488 8.2517 0 0 1 .0671.2114 4.5488 8.2517 0 0 0-.067-.2114zm.1896.643a4.5488 8.2517 0 0 1 .0729.2915 4.5488 8.2517 0 0 0-.0729-.2916zm.0802.3206a4.5488 8.2517 0 0 1 .0656.2945 4.5488 8.2517 0 0 0-.0656-.2945zm.0772.3543a4.5488 8.2517 0 0 1 .0642.3324 4.5488 8.2517 0 0 1 .0583.3542 4.5488 8.2517 0 0 1 .035.2493 4.5488 8.2517 0 0 0-.035-.2493 4.5488 8.2517 0 0 0-.0583-.3542 4.5488 8.2517 0 0 0-.0642-.3324zm.2143 1.4155a4.5488 8.2517 0 0 1 .016.1735 4.5488 8.2517 0 0 0-.016-.1735z" display="inline" paint-order="stroke markers fill"/>
    <path id="jupiter-mantle-right-1" fill="url(#radialGradient68476)" stroke-width=".5514" d="M58.5996 91.7617V61.666a4.5488 8.2517 0 0 1-4.541-8.248 4.5488 8.2517 0 0 1 4.541-8.252V15.0723A21.138 38.345 0 0 0 37.463 53.418a21.138 38.345 0 0 0 21.1367 38.3437z" transform="translate(12.576 17.7584)"/>
    <path id="jupiter-mantle-left" fill="url(#radialGradient69857)" stroke="none" stroke-opacity="0" stroke-width="2.1548" d="M71.1756 32.8307A38.3401 38.3452 0 0 0 32.8354 71.176a38.3401 38.3452 0 0 0 38.3402 38.3454A21.135 38.3452 0 0 1 50.041 71.1761a21.135 38.3452 0 0 1 21.1346-38.3454z" display="inline" paint-order="stroke markers fill"/>
    <path id="jupiter-atmosphere-right-1" fill="#e8d2b9" stroke-width=".7681" d="M58.5996 106.834V91.7617A21.138 38.345 0 0 1 37.463 53.418a21.138 38.345 0 0 1 21.1367-38.3457V0a29.4465 53.417 0 0 0-29.4453 53.418 29.4465 53.417 0 0 0 29.4453 53.416z" display="inline" transform="translate(12.576 17.7584)"/>
    <path id="jupiter-atmosphere-left" fill="url(#radialGradient1004)" stroke="none" stroke-opacity="0" stroke-width="2.9952" d="M71.1756 17.7584a53.1772 53.4174 0 0 0-53.1772 53.4177 53.1772 53.4174 0 0 0 53.1772 53.4177A29.3139 53.4174 0 0 1 41.8623 71.176a29.3139 53.4174 0 0 1 29.3133-53.4177z" display="inline" paint-order="stroke markers fill"/>
  </g>
</svg>
