<svg id="svg5" width="146.1587" height="106.8418" version="1.1" viewBox="0 0 146.1587 106.8418">
  <defs id="defs2">
    <radialGradient id="radialGradient1004" cx="76.7318" cy="70.2176" r="53.1757" fx="76.7318" fy="70.2176" gradientTransform="matrix(1.15866 0 0 1.1639 -11.292 -11.6652)" gradientUnits="userSpaceOnUse" xlink:href="#linearGradient1002"/>
    <radialGradient id="radialGradient21083" cx="73.4477" cy="79.6142" r="8.5742" fx="73.4477" fy="79.6142" gradientTransform="matrix(4.48347 .02804 -.03141 5.02232 -261.1637 -310.6642)" gradientUnits="userSpaceOnUse" xlink:href="#linearGradient61268"/>
    <radialGradient id="radialGradient25047" cx="73.9398" cy="82.3085" r="11.0557" fx="73.9398" fy="82.3085" gradientTransform="matrix(4.58988 -.01827 .01633 4.10098 -274.4466 -242.9938)" gradientUnits="userSpaceOnUse" xlink:href="#linearGradient61268"/>
    <radialGradient id="radialGradient59318" cx="71.1765" cy="71.1754" r="29.4465" fx="71.1765" fy="71.1754" gradientTransform="matrix(1 0 0 1.81404 -12.576 -75.6977)" gradientUnits="userSpaceOnUse" xlink:href="#linearGradient59486"/>
    <radialGradient id="radialGradient62154" cx="71.1765" cy="71.1754" r="29.4465" fx="71.1765" fy="71.1754" gradientTransform="matrix(1 0 0 1.81404 -12.576 -75.6977)" gradientUnits="userSpaceOnUse" xlink:href="#linearGradient59486"/>
    <linearGradient id="linearGradient61268">
      <stop id="stop61262" offset="0" stop-color="#feca70" stop-opacity="1"/>
      <stop id="stop61264" offset=".6619" stop-color="#c16d45" stop-opacity="1"/>
      <stop id="stop61266" offset="1" stop-color="#88431f" stop-opacity="1"/>
    </linearGradient>
    <linearGradient id="linearGradient59486">
      <stop id="stop59478" offset="0" stop-color="#ffc922" stop-opacity="1"/>
      <stop id="stop59480" offset=".485" stop-color="#894f0a" stop-opacity="1"/>
      <stop id="stop59482" offset=".8525" stop-color="#e08110" stop-opacity="1"/>
      <stop id="stop59484" offset="1" stop-color="#89510a" stop-opacity="1"/>
    </linearGradient>
    <linearGradient id="linearGradient1002">
      <stop id="stop998" offset="0" stop-color="#ffc922" stop-opacity="1"/>
      <stop id="stop2416" offset=".4734" stop-color="#e6a286" stop-opacity="1"/>
      <stop id="stop1966" offset=".8971" stop-color="#d77d51" stop-opacity="1"/>
      <stop id="stop1000" offset="1" stop-color="#faf3ee" stop-opacity="1"/>
    </linearGradient>
    <linearGradient id="linearGradient8132">
      <stop id="stop8128" offset="0" stop-color="#ffce00" stop-opacity="1"/>
      <stop id="stop8130" offset="1" stop-color="#ffce00" stop-opacity="0"/>
    </linearGradient>
  </defs>
  <g id="layer2" fill-opacity="1" transform="translate(-12.576 -17.7584)">
    <path id="mars-interior" fill="#533c00" stroke-width=".3611" d="M76.6808 124.5924l-.0053-.2402V99.9068a21.3386 28.7325 0 0 1-21.3378-28.7324A21.3386 28.7325 0 0 1 76.6756 42.442a21.3386 28.7325 0 0 1 21.3379 28.7324 21.3386 28.7325 0 0 1-21.338 28.7324v24.4453z" display="inline"/>
    <path id="mars-mantle-right-2" fill="url(#radialGradient62154)" stroke-width=".524" d="M58.5996 0v28.123c13.953.0208 25.2528 11.3381 25.252 25.291-.0065 13.9112-11.2473 25.2052-25.1582 25.2774l-.0352.004a5.8741 5.8741 0 0 1-.0586.0077v27.8906l-.0215.2383.0215.002c16.263.0008 29.447-23.9145 29.4473-53.416C88.0472 23.9157 74.8629-.0008 58.5996 0zM44.6191 53.418c-29.746-35.612-14.873-17.806 0 0z" display="inline" transform="translate(12.576 17.7584)"/>
    <path id="mars-core-left" fill="url(#radialGradient25047)" stroke="none" stroke-dasharray="none" stroke-miterlimit="4" stroke-opacity="1" stroke-width="37.0546" d="M71.2074 45.8821a25.364 25.2926 0 0 1 1.2322.0313 25.361 25.2895 0 0 0-1.2322-.0313zm0 0a25.364 25.2926 0 0 0-25.3667 25.2907A25.364 25.2926 0 0 0 71.2074 96.468a13.982 25.2925 0 0 1-13.9806-25.2907 13.982 25.2925 0 0 1 13.9806-25.2952zm0 50.586a25.364 25.2926 0 0 0 16.6602-6.2379 25.361 25.2895 0 0 1-16.5258 6.22 13.982 25.2925 0 0 1-.0358.0046 13.982 25.2925 0 0 1-.0986.0135zm16.6602-6.2379a25.364 25.2926 0 0 0 6.4212-8.588 25.361 25.2895 0 0 1-6.4212 8.588zm6.4212-8.588a25.364 25.2926 0 0 0 1.2591-3.3692 25.361 25.2895 0 0 1-1.2591 3.3691zm1.2591-3.3692a25.364 25.2926 0 0 0 .7618-3.5121 25.361 25.2895 0 0 1-.7618 3.5121zM72.592 45.9223a25.364 25.2926 0 0 1 1.0262.076 25.361 25.2895 0 0 0-1.0261-.076zm1.0262.076a25.361 25.2895 0 0 1 .4705.0536 25.364 25.2926 0 0 0-.4705-.0536zm.4705.0536a25.364 25.2926 0 0 1 .7439.0894 25.361 25.2895 0 0 0-.7439-.0894zm.7439.0894a25.361 25.2895 0 0 1 .3898.067 25.364 25.2926 0 0 0-.3898-.067zm.3898.067a25.364 25.2926 0 0 1 .8693.152 25.361 25.2895 0 0 0-.8693-.152zm1.0889.1966a25.364 25.2926 0 0 1 .9813.219 25.361 25.2895 0 0 0-.9813-.219zm1.2367.286a25.364 25.2926 0 0 1 .8873.2458 25.361 25.2895 0 0 0-.8873-.2458zm.8873.2458a25.361 25.2895 0 0 1 .3315.1027 25.364 25.2926 0 0 0-.3315-.1027zm.3315.1027a25.364 25.2926 0 0 1 .838.2726 25.361 25.2895 0 0 0-.838-.2726zm.838.2726a25.361 25.2895 0 0 1 .345.1251 25.364 25.2926 0 0 0-.345-.125zm.345.1251a25.364 25.2926 0 0 1 .7752.2994 25.361 25.2895 0 0 0-.7752-.2994zm.7752.2994a25.361 25.2895 0 0 1 .3675.152 25.364 25.2926 0 0 0-.3675-.152zm.3675.152a25.364 25.2926 0 0 1 .8155.3619 25.361 25.2895 0 0 0-.8155-.362zm.8155.3619a25.361 25.2895 0 0 1 .251.1161 25.364 25.2926 0 0 0-.251-.1161zm.251.1161a25.364 25.2926 0 0 1 .7527.3754 25.361 25.2895 0 0 0-.7528-.3754zm.7527.3754a25.361 25.2895 0 0 1 .4392.2323 25.364 25.2926 0 0 0-.4392-.2323zm.4392.2323a25.364 25.2926 0 0 1 .5332.2994 25.361 25.2895 0 0 0-.5332-.2994zm.5332.2994a25.361 25.2895 0 0 1 .5287.3128 25.364 25.2926 0 0 0-.5287-.3128zm.5287.3128a25.364 25.2926 0 0 1 .7528.478 25.361 25.2895 0 0 0-.7528-.478zm.9097.5764a25.364 25.2926 0 0 1 .9544.6702 25.361 25.2895 0 0 0-.9544-.6702zm.9992.706a25.364 25.2926 0 0 1 .8917.6881 25.361 25.2895 0 0 0-.8917-.6881zm.9903.7685a25.364 25.2926 0 0 1 .717.6167 25.361 25.2895 0 0 0-.717-.6167zm2.8186 2.7034a25.364 25.2926 0 0 1 .681.7909 25.361 25.2895 0 0 0-.681-.791zm.681.7909a25.364 25.2926 0 0 1 .7573.9696 25.361 25.2895 0 0 0-.7572-.9696zm.7932 1.0143a25.364 25.2926 0 0 1 .6721.9517 25.361 25.2895 0 0 0-.6721-.9517zm.7707 1.1081a25.364 25.2926 0 0 1 .4795.7507 25.361 25.2895 0 0 0-.4795-.7507zm.4795.7507a25.361 25.2895 0 0 1 .3136.5273 25.364 25.2926 0 0 0-.3136-.5273zm.3136.5273a25.364 25.2926 0 0 1 .3003.5317 25.361 25.2895 0 0 0-.3003-.5317zm.3003.5317a25.361 25.2895 0 0 1 .2554.4826 25.364 25.2926 0 0 0-.2554-.4826zm.2554.4826a25.364 25.2926 0 0 1 .3002.5943 25.361 25.2895 0 0 0-.3002-.5943zm.3002.5943a25.361 25.2895 0 0 1 .2375.5049 25.364 25.2926 0 0 0-.2375-.505zm.2375.5049a25.364 25.2926 0 0 1 .2868.6434 25.361 25.2895 0 0 0-.2868-.6434zm.2868.6434a25.361 25.2895 0 0 1 .1568.3843 25.364 25.2926 0 0 0-.1568-.3843zm.1568.3843a25.364 25.2926 0 0 1 .3271.8445 25.361 25.2895 0 0 0-.327-.8445zm.3271.8445a25.361 25.2895 0 0 1 .0896.2413 25.364 25.2926 0 0 0-.0896-.2413zm.0896.2413a25.364 25.2926 0 0 1 .2913.8847 25.361 25.2895 0 0 0-.2913-.8847zm.2913.8847a25.361 25.2895 0 0 1 .0986.3218 25.364 25.2926 0 0 0-.0986-.3218zm.0986.3218a25.364 25.2926 0 0 1 .2464.8847 25.361 25.2895 0 0 0-.2464-.8847zm.3136 1.1394a25.364 25.2926 0 0 1 .2196.9786 25.361 25.2895 0 0 0-.2196-.9786zm.2644 1.1975a25.364 25.2926 0 0 1 .1524.8669 25.361 25.2895 0 0 0-.1524-.8669zm.1524.8669a25.361 25.2895 0 0 1 .0672.3887 25.364 25.2926 0 0 0-.0672-.3887zm.0672.3887a25.364 25.2926 0 0 1 .0896.7417 25.361 25.2895 0 0 0-.0896-.7417zm.0896.7417a25.361 25.2895 0 0 1 .0538.4692 25.364 25.2926 0 0 0-.0538-.4692zm.0538.4692a25.364 25.2926 0 0 1 .0761 1.0233 25.361 25.2895 0 0 0-.0761-1.0233zm.0851 1.1752a25.364 25.2926 0 0 1 .0314 1.2288 25.361 25.2895 0 0 0-.0314-1.2288z" display="inline"/>
    <path id="mars-core-right" fill="url(#radialGradient21083)" stroke="none" stroke-opacity="0" stroke-width="1.0553" d="M71.1359 45.8821a13.9425 25.2925 0 0 1 .6255.0268 13.9425 25.2925 0 0 1 .6256.076 13.9425 25.2925 0 0 1 .6211.1296 13.9425 25.2925 0 0 0-.6211-.1296 13.9425 25.2925 0 0 0-.6256-.076 13.9425 25.2925 0 0 0-.6255-.0268zm0 0a13.9425 25.2925 0 0 0-13.9412 25.2952A13.9425 25.2925 0 0 0 71.1359 96.468a13.9425 25.2925 0 0 0 .0983-.0136 13.9425 25.2925 0 0 0 .0357-.0046 25.2895 25.2895 0 0 0 25.1567-25.277A25.2895 25.2895 0 0 0 71.136 45.882zm2.7257.4915a13.9425 25.2925 0 0 1 .3485.134 13.9425 25.2925 0 0 0-.3485-.134zm1.2645.572a13.9425 25.2925 0 0 1 .2591.1385 13.9425 25.2925 0 0 0-.2591-.1385zm.5675.3306a13.9425 25.2925 0 0 1 .268.1698 13.9425 25.2925 0 0 0-.268-.1698zm.5987.4066a13.9425 25.2925 0 0 1 .2413.1743 13.9425 25.2925 0 0 0-.2413-.1743zm.4737.3575a13.9425 25.2925 0 0 1 .4021.3351 13.9425 25.2925 0 0 0-.4021-.3351zm.4647.3887a13.9425 25.2925 0 0 1 .4691.4335 13.9425 25.2925 0 0 0-.4691-.4335zm.5898.5496a13.9425 25.2925 0 0 1 .4602.4782 13.9425 25.2925 0 0 0-.4602-.4782zm.4826.505a13.9425 25.2925 0 0 1 .5138.5853 13.9425 25.2925 0 0 1 .429.5318 13.9425 25.2925 0 0 0-.429-.5318 13.9425 25.2925 0 0 0-.5138-.5853zm1.1617 1.4075a13.9425 25.2925 0 0 1 .2905.4066 13.9425 25.2925 0 0 0-.2905-.4066zm.4603.6524a13.9425 25.2925 0 0 1 .3574.5406 13.9425 25.2925 0 0 0-.3574-.5406zm.411.63a13.9425 25.2925 0 0 1 .362.5898 13.9425 25.2925 0 0 0-.362-.5898zm.5452.916a13.9425 25.2925 0 0 1 .2279.4156 13.9425 25.2925 0 0 0-.2279-.4156zm.411.7596a13.9425 25.2925 0 0 1 .3263.6524 13.9425 25.2925 0 0 0-.3262-.6524zm.3575.715a13.9425 25.2925 0 0 1 .3575.773 13.9425 25.2925 0 0 0-.3575-.773zm.4156.907a13.9425 25.2925 0 0 1 .3038.7284 13.9425 25.2925 0 0 0-.3038-.7284zm.3887.9294a13.9425 25.2925 0 0 1 .2145.563 13.9425 25.2925 0 0 0-.2145-.563zm.6837 1.9035a13.9425 25.2925 0 0 1 .2056.648 13.9425 25.2925 0 0 0-.2056-.648zm.5809 1.9706a13.9425 25.2925 0 0 1 .2234.8936 13.9425 25.2925 0 0 0-.2234-.8936zm.2457.983a13.9425 25.2925 0 0 1 .2011.9026 13.9425 25.2925 0 0 0-.201-.9026zm.2369 1.0858a13.9425 25.2925 0 0 1 .1966 1.0188 13.9425 25.2925 0 0 1 .1787 1.0858 13.9425 25.2925 0 0 1 .1073.764 13.9425 25.2925 0 0 0-.1073-.764 13.9425 25.2925 0 0 0-.1787-1.0858 13.9425 25.2925 0 0 0-.1966-1.0188zm.6568 4.3388a13.9425 25.2925 0 0 1 .0492.5317 13.9425 25.2925 0 0 0-.0492-.5317z" display="inline" paint-order="stroke markers fill"/>
    <path id="mars-mantle-right-1" fill="url(#radialGradient59318)" stroke-width=".524" d="M58.5996 0C42.337.0012 29.154 23.917 29.1543 53.418c.0009 29.4842 13.1705 53.3913 29.4238 53.414l.0215-.2382V78.703l-.039.006c-7.6995-.0012-13.941-11.3238-13.9415-25.291-.0007-13.969 6.2411-25.294 13.9414-25.295h.0391zm25.252 53.414c-55.901-35.6093-27.9506-17.8046 0 0z" display="inline" transform="translate(12.576 17.7584)"/>
    <path id="mars-crust" fill="url(#radialGradient1004)" stroke="none" stroke-opacity="0" stroke-width="2.9952" d="M71.1756 17.7584a53.1772 53.4174 0 0 0-53.1772 53.4177 53.1772 53.4174 0 0 0 53.1772 53.4177A29.3139 53.4174 0 0 1 41.8623 71.176a29.3139 53.4174 0 0 1 29.3133-53.4177z" paint-order="stroke markers fill"/>
  </g>
</svg>
