<svg id="svg5" width="150" height="106.5918" version="1.1" viewBox="0 0 150 106.5918">
  <defs id="defs2">
    <radialGradient id="radialGradient1004" cx="76.7318" cy="70.2176" r="53.1757" fx="76.7318" fy="70.2176" gradientTransform="matrix(1.1538 0 0 1.1538 -26.9486 -31.2409)" gradientUnits="userSpaceOnUse" xlink:href="#linearGradient1002"/>
    <radialGradient id="radialGradient21083" cx="73.3265" cy="79.9871" r="8.5742" fx="73.3265" fy="79.9871" gradientTransform="matrix(5.28132 0 0 6.80977 -339.7169 -465.9711)" gradientUnits="userSpaceOnUse" xlink:href="#linearGradient21081"/>
    <radialGradient id="radialGradient25047" cx="74.1502" cy="82.688" r="11.0557" fx="74.1502" fy="82.688" gradientTransform="matrix(5.78656 .06634 -.06396 5.57877 -373.5826 -385.3755)" gradientUnits="userSpaceOnUse" xlink:href="#linearGradient21081"/>
    <radialGradient id="radialGradient39316" cx="76.7318" cy="70.2176" r="53.1757" fx="76.7318" fy="70.2176" gradientTransform="matrix(1.09708 0 0 1.05536 -21.8836 -24.2675)" gradientUnits="userSpaceOnUse" xlink:href="#linearGradient39868"/>
    <radialGradient id="radialGradient40537" cx="71.1757" cy="71.1755" r="53.1757" fx="71.1757" fy="71.1755" gradientTransform="matrix(.54905 0 0 .996 16.0969 -20.0062)" gradientUnits="userSpaceOnUse" xlink:href="#linearGradient32454"/>
    <radialGradient id="radialGradient41558" cx="71.1757" cy="71.1755" r="53.1757" fx="71.1757" fy="71.1755" gradientTransform="matrix(.5025 0 0 .91154 19.4105 -13.9953)" gradientUnits="userSpaceOnUse" xlink:href="#linearGradient15299"/>
    <radialGradient id="radialGradient42007" cx="71.1757" cy="71.1755" r="53.1757" fx="71.1757" fy="71.1755" gradientTransform="matrix(.54905 0 0 .996 16.0969 -20.0082)" gradientUnits="userSpaceOnUse" xlink:href="#linearGradient32454"/>
    <radialGradient id="radialGradient42009" cx="71.1757" cy="71.1755" r="53.1757" fx="71.1757" fy="71.1755" gradientTransform="matrix(.5025 0 0 .91154 19.4105 -13.9972)" gradientUnits="userSpaceOnUse" xlink:href="#linearGradient15299"/>
    <linearGradient id="linearGradient39868">
      <stop id="stop39860" offset="0" stop-color="#ffdc1c" stop-opacity="1"/>
      <stop id="stop39862" offset=".4925" stop-color="#fff57c" stop-opacity="1"/>
      <stop id="stop39864" offset=".8582" stop-color="#bc8f00" stop-opacity="1"/>
      <stop id="stop39866" offset="1" stop-color="#ca9e4b" stop-opacity="1"/>
    </linearGradient>
    <linearGradient id="linearGradient32454">
      <stop id="stop32446" offset="0" stop-color="#f0f0f0" stop-opacity="1"/>
      <stop id="stop32448" offset=".445" stop-color="#c4c4c4" stop-opacity="1"/>
      <stop id="stop32450" offset=".8525" stop-color="#888" stop-opacity="1"/>
      <stop id="stop32452" offset="1" stop-color="#484848" stop-opacity="1"/>
    </linearGradient>
    <linearGradient id="linearGradient21081">
      <stop id="stop21077" offset="0" stop-color="#f9ff7e" stop-opacity="1"/>
      <stop id="stop21277" offset=".6365" stop-color="#d38100" stop-opacity="1"/>
      <stop id="stop21079" offset="1" stop-color="#863700" stop-opacity="1"/>
    </linearGradient>
    <linearGradient id="linearGradient15299">
      <stop id="stop15291" offset="0" stop-color="#ffdc1c" stop-opacity="1"/>
      <stop id="stop15293" offset=".481" stop-color="#fff57c" stop-opacity="1"/>
      <stop id="stop15295" offset=".8525" stop-color="#ae8400" stop-opacity="1"/>
      <stop id="stop15297" offset="1" stop-color="#966200" stop-opacity="1"/>
    </linearGradient>
    <linearGradient id="linearGradient1002">
      <stop id="stop998" offset="0" stop-color="#f0f0f0" stop-opacity="1"/>
      <stop id="stop2416" offset=".445" stop-color="#a49797" stop-opacity="1"/>
      <stop id="stop1966" offset=".8525" stop-color="#555050" stop-opacity="1"/>
      <stop id="stop1000" offset="1" stop-color="#c6c6c6" stop-opacity="1"/>
    </linearGradient>
    <linearGradient id="linearGradient8132">
      <stop id="stop8128" offset="0" stop-color="#ffce00" stop-opacity="1"/>
      <stop id="stop8130" offset="1" stop-color="#ffce00" stop-opacity="0"/>
    </linearGradient>
  </defs>
  <g id="layer2" fill-opacity="1" stroke="none" transform="translate(4.247 2.4137)">
    <ellipse id="mercury-interior" cx="55.0289" cy="50.8823" fill="#482709" stroke-dasharray="16.8968 50.6905" stroke-width="16.8968" rx="27.2606" ry="49.2497"/>
    <path id="mercury-crust-right-2" fill="url(#radialGradient42007)" stroke-opacity="1" stroke-width="2.2099" d="M55.1378 103.842a29.1959 52.963 0 0 0 .037.004 29.1959 52.963 0 0 0 29.1973-52.963A29.1959 52.963 0 0 0 55.175-2.0817c0 4.9045-.0018.4435-.002 4.9043a26.4934 48.0605 0 0 1 .002 0A26.4934 48.0605 0 0 1 81.669 50.8831 26.4934 48.0605 0 0 1 55.175 98.9417a26.4934 48.0605 0 0 1-.0352-.004l-.002 4.9043z" display="inline" paint-order="stroke markers fill"/>
    <path id="mercury-mantle-right-2" fill="url(#radialGradient42009)" stroke-opacity="0" stroke-width="2.0225" d="M55.1397 99.3499a26.7203 48.472 0 0 0 .0352.004 26.7203 48.472 0 0 0 26.7207-48.4707 26.7203 48.472 0 0 0-2.5801-20.7578 26.7203 48.472 0 0 0-.0098-.0332 26.7203 48.472 0 0 0-1.5899-5.2227 26.7203 48.472 0 0 0-.041-.1172 26.7203 48.472 0 0 0-1.9336-4.8008 26.7203 48.472 0 0 0-.043-.0898 26.7203 48.472 0 0 0-2.248-4.3281 26.7203 48.472 0 0 0-.0547-.0918 26.7203 48.472 0 0 0-2.5254-3.7793 26.7203 48.472 0 0 0-.0605-.0781 26.7203 48.472 0 0 0-2.7871-3.1954 26.7203 48.472 0 0 0-.006-.0078 26.7203 48.472 0 0 0-.0097-.0098 26.7203 48.472 0 0 0-3.0059-2.5586 26.7203 48.472 0 0 0-.039-.0273 26.7203 48.472 0 0 0-3.1446-1.8496 26.7203 48.472 0 0 0-.039-.0156 26.7203 48.472 0 0 0-3.2559-1.127 26.7203 48.472 0 0 0-.0078-.002 26.7203 48.472 0 0 0-.0137-.002 26.7203 48.472 0 0 0-3.3261-.3789 26.7203 48.472 0 0 0-.002 0c-.0005 15.2094-.004 5.944-.006 16.586a31.8849 31.8849 0 0 1 18.5743 6.0996 26.7203 48.472 0 0 1 4.1543 25.787 26.7203 48.472 0 0 1-4.1973 25.8028 31.8849 31.8849 0 0 1-18.412 6.0625 17.5786 31.8886 0 0 1-.045.006 17.5786 31.8886 0 0 1-.0957.0137c-.0018.6562-.0054 16.5523-.006 16.582z" display="inline" paint-order="stroke markers fill"/>
    <path id="mercury-core-left" fill="url(#radialGradient25047)" stroke-dasharray="none" stroke-miterlimit="4" stroke-opacity="1" stroke-width="46.7181" d="M55.208 18.9927a31.9789 31.8887 0 0 1 1.5536.0394 31.975 31.8849 0 0 0-1.5536-.0394zm0 0a31.9789 31.8887 0 0 0-31.9822 31.8864 31.9789 31.8887 0 0 0 31.9822 31.892 17.6283 31.8886 0 0 1-17.6267-31.8864 17.6283 31.8886 0 0 1 17.6267-31.892zm0 63.7784a31.9789 31.8887 0 0 0 21.005-7.8645 31.975 31.8849 0 0 1-20.8355 7.842 17.6283 31.8886 0 0 1-.0452.006 17.6283 31.8886 0 0 1-.1243.017zm21.005-7.8645a31.9789 31.8887 0 0 0 8.0959-10.8279 31.975 31.8849 0 0 1-8.0959 10.8279zm8.0959-10.8279a31.9789 31.8887 0 0 0 1.5875-4.2477 31.975 31.8849 0 0 1-1.5875 4.2477zm1.5875-4.2477a31.9789 31.8887 0 0 0 .9604-4.428 31.975 31.8849 0 0 1-.9604 4.428zM56.9537 19.0434a31.9789 31.8887 0 0 1 1.2937.0958 31.975 31.8849 0 0 0-1.2937-.0958zm1.2937.0958a31.975 31.8849 0 0 1 .5932.0676 31.9789 31.8887 0 0 0-.5932-.0676zm.5932.0676a31.9789 31.8887 0 0 1 .9379.1126 31.975 31.8849 0 0 0-.9379-.1126zm.9379.1126a31.975 31.8849 0 0 1 .4915.0846 31.9789 31.8887 0 0 0-.4915-.0846zm.4915.0846a31.9789 31.8887 0 0 1 1.096.1915 31.975 31.8849 0 0 0-1.096-.1915zm1.3728.2478a31.9789 31.8887 0 0 1 1.2373.276 31.975 31.8849 0 0 0-1.2373-.276zm1.5593.3606a31.9789 31.8887 0 0 1 1.1186.3098 31.975 31.8849 0 0 0-1.1186-.3098zm1.1186.3098a31.975 31.8849 0 0 1 .418.1296 31.9789 31.8887 0 0 0-.418-.1296zm.418.1296a31.9789 31.8887 0 0 1 1.0565.3437 31.975 31.8849 0 0 0-1.0564-.3437zm1.0565.3437a31.975 31.8849 0 0 1 .435.1577 31.9789 31.8887 0 0 0-.435-.1577zm.435.1577a31.9789 31.8887 0 0 1 .9774.3775 31.975 31.8849 0 0 0-.9773-.3775zm.9774.3775a31.975 31.8849 0 0 1 .4633.1915 31.9789 31.8887 0 0 0-.4633-.1915zm.4633.1915a31.9789 31.8887 0 0 1 1.0282.4564 31.975 31.8849 0 0 0-1.0282-.4564zm1.0282.4564a31.975 31.8849 0 0 1 .3164.1464 31.9789 31.8887 0 0 0-.3164-.1464zm.3164.1464a31.9789 31.8887 0 0 1 .9491.4732 31.975 31.8849 0 0 0-.9491-.4732zm.9491.4732a31.975 31.8849 0 0 1 .5537.293 31.9789 31.8887 0 0 0-.5537-.293zm.5537.293a31.9789 31.8887 0 0 1 .6723.3774 31.975 31.8849 0 0 0-.6723-.3774zm.6723.3774a31.975 31.8849 0 0 1 .6666.3944 31.9789 31.8887 0 0 0-.6666-.3944zm.6666.3944a31.9789 31.8887 0 0 1 .9492.6028 31.975 31.8849 0 0 0-.9492-.6028zm1.1469.7267a31.9789 31.8887 0 0 1 1.2033.845 31.975 31.8849 0 0 0-1.2033-.845zm1.2598.8902a31.9789 31.8887 0 0 1 1.1243.8675 31.975 31.8849 0 0 0-1.1243-.8675zm1.2486.969a31.9789 31.8887 0 0 1 .904.7774 31.975 31.8849 0 0 0-.904-.7775zm3.5536 3.4083a31.9789 31.8887 0 0 1 .8587.9972 31.975 31.8849 0 0 0-.8587-.9972zm.8587.9972a31.9789 31.8887 0 0 1 .9548 1.2224 31.975 31.8849 0 0 0-.9548-1.2225zm1 1.2788a31.9789 31.8887 0 0 1 .8474 1.2 31.975 31.8849 0 0 0-.8474-1.2zm.9717 1.3971a31.9789 31.8887 0 0 1 .6045.9465 31.975 31.8849 0 0 0-.6045-.9465zm.6045.9465a31.975 31.8849 0 0 1 .3955.6647 31.9789 31.8887 0 0 0-.3955-.6647zm.3955.6647a31.9789 31.8887 0 0 1 .3785.6704 31.975 31.8849 0 0 0-.3785-.6704zm.3785.6704a31.975 31.8849 0 0 1 .322.6085 31.9789 31.8887 0 0 0-.322-.6085zm.322.6085a31.9789 31.8887 0 0 1 .3785.7492 31.975 31.8849 0 0 0-.3785-.7492zm.3785.7492a31.975 31.8849 0 0 1 .2995.6366 31.9789 31.8887 0 0 0-.2995-.6366zm.2995.6366a31.9789 31.8887 0 0 1 .3615.8113 31.975 31.8849 0 0 0-.3615-.8113zm.3615.8113a31.975 31.8849 0 0 1 .1978.4845 31.9789 31.8887 0 0 0-.1978-.4845zm.1978.4845a31.9789 31.8887 0 0 1 .4124 1.0647 31.975 31.8849 0 0 0-.4124-1.0647zm.4124 1.0647a31.975 31.8849 0 0 1 .113.3043 31.9789 31.8887 0 0 0-.113-.3043zm.113.3043a31.9789 31.8887 0 0 1 .3672 1.1154 31.975 31.8849 0 0 0-.3672-1.1154zm.3672 1.1154a31.975 31.8849 0 0 1 .1243.4056 31.9789 31.8887 0 0 0-.1243-.4056zm.1243.4056a31.9789 31.8887 0 0 1 .3107 1.1155 31.975 31.8849 0 0 0-.3107-1.1155zm.3955 1.4366a31.9789 31.8887 0 0 1 .2768 1.2338 31.975 31.8849 0 0 0-.2768-1.2338zm.3333 1.5098a31.9789 31.8887 0 0 1 .192 1.093 31.975 31.8849 0 0 0-.192-1.093zm.192 1.093a31.975 31.8849 0 0 1 .0848.49 31.9789 31.8887 0 0 0-.0847-.49zm.0848.49a31.9789 31.8887 0 0 1 .113.9353 31.975 31.8849 0 0 0-.113-.9352zm.113.9353a31.975 31.8849 0 0 1 .0677.5915 31.9789 31.8887 0 0 0-.0677-.5915zm.0677.5915a31.9789 31.8887 0 0 1 .096 1.2901 31.975 31.8849 0 0 0-.096-1.29zm.1074 1.4817a31.9789 31.8887 0 0 1 .0395 1.5492 31.975 31.8849 0 0 0-.0395-1.5492z" display="inline" opacity="1"/>
    <path id="mercury-core-right" fill="url(#radialGradient21083)" stroke-opacity="0" stroke-width="1.3306" d="M55.1178 18.993a17.5786 31.8886 0 0 1 .7887.0337 17.5786 31.8886 0 0 1 .7887.0958 17.5786 31.8886 0 0 1 .7831.1634 17.5786 31.8886 0 0 0-.783-.1634 17.5786 31.8886 0 0 0-.7888-.0958 17.5786 31.8886 0 0 0-.7887-.0338zm0 0a17.5786 31.8886 0 0 0-17.577 31.892 17.5786 31.8886 0 0 0 17.577 31.8864 17.5786 31.8886 0 0 0 .124-.017 17.5786 31.8886 0 0 0 .045-.006 31.8849 31.8849 0 0 0 31.7174-31.869 31.8849 31.8849 0 0 0-31.8864-31.8865zm3.4365.6196a17.5786 31.8886 0 0 1 .4395.169 17.5786 31.8886 0 0 0-.4395-.169zm1.5944.7211a17.5786 31.8886 0 0 1 .3267.1747 17.5786 31.8886 0 0 0-.3267-.1747zm.7154.417a17.5786 31.8886 0 0 1 .338.214 17.5786 31.8886 0 0 0-.338-.214zm.755.5126a17.5786 31.8886 0 0 1 .3042.2197 17.5786 31.8886 0 0 0-.3043-.2197zm.5971.4507a17.5786 31.8886 0 0 1 .507.4225 17.5786 31.8886 0 0 0-.507-.4225zm.5859.4901a17.5786 31.8886 0 0 1 .5915.5465 17.5786 31.8886 0 0 0-.5915-.5465zm.7436.693a17.5786 31.8886 0 0 1 .5803.6027 17.5786 31.8886 0 0 0-.5803-.6028zm.6085.6365a17.5786 31.8886 0 0 1 .6478.738 17.5786 31.8886 0 0 1 .5409.6705 17.5786 31.8886 0 0 0-.5409-.6704 17.5786 31.8886 0 0 0-.6478-.738zm1.4647 1.7746a17.5786 31.8886 0 0 1 .3662.5127 17.5786 31.8886 0 0 0-.3662-.5127zm.5803.8226a17.5786 31.8886 0 0 1 .4507.6816 17.5786 31.8886 0 0 0-.4507-.6816zm.5183.7943a17.5786 31.8886 0 0 1 .4563.7436 17.5786 31.8886 0 0 0-.4563-.7436zm.6873 1.1549a17.5786 31.8886 0 0 1 .2873.524 17.5786 31.8886 0 0 0-.2873-.524zm.5183.9577a17.5786 31.8886 0 0 1 .4112.8225 17.5786 31.8886 0 0 0-.4112-.8225zm.4507.9014a17.5786 31.8886 0 0 1 .4507.9746 17.5786 31.8886 0 0 0-.4507-.9746zm.5239 1.1436a17.5786 31.8886 0 0 1 .383.9183 17.5786 31.8886 0 0 0-.383-.9183zm.4901 1.1718a17.5786 31.8886 0 0 1 .2704.7099 17.5786 31.8886 0 0 0-.2704-.7099zm.862 2.4a17.5786 31.8886 0 0 1 .2591.8168 17.5786 31.8886 0 0 0-.2591-.8168zm.7323 2.4844a17.5786 31.8886 0 0 1 .2817 1.1267 17.5786 31.8886 0 0 0-.2817-1.1267zm.3099 1.2394a17.5786 31.8886 0 0 1 .2535 1.138 17.5786 31.8886 0 0 0-.2535-1.138zm.2986 1.369a17.5786 31.8886 0 0 1 .2479 1.2844 17.5786 31.8886 0 0 1 .2253 1.369 17.5786 31.8886 0 0 1 .1352.9634 17.5786 31.8886 0 0 0-.1352-.9634 17.5786 31.8886 0 0 0-.2253-1.369 17.5786 31.8886 0 0 0-.248-1.2844zm.8281 5.4702a17.5786 31.8886 0 0 1 .062.6704 17.5786 31.8886 0 0 0-.062-.6704z" display="inline" opacity="1" paint-order="stroke markers fill"/>
    <path id="mercury-mantle-right-1" fill="url(#radialGradient41558)" stroke-opacity="0" stroke-width="2.0225" d="M55.1397 99.3518c.0005-.0298.004-15.9258.006-16.582a17.5786 31.8886 0 0 1-.0274.004A17.5786 31.8886 0 0 1 37.54 50.887a17.5786 31.8886 0 0 1 17.5782-31.8925 31.8849 31.8849 0 0 1 .0488.0039c.0018-10.6419.0054-1.3766.0059-16.586a26.7203 48.472 0 0 0-1.623.1934A26.7203 48.472 0 0 0 28.4562 50.885 26.7203 48.472 0 0 0 53.175 99.1175a26.7203 48.472 0 0 0 1.9648.2344z" display="inline" paint-order="stroke markers fill"/>
    <path id="mercury-mantle-left" fill="url(#radialGradient39316)" stroke-opacity="0" stroke-width="2.7753" d="M56.2007 2.4124A50.3508 48.4363 0 0 0 5.85 50.849a50.3508 48.4363 0 0 0 50.3508 48.4366A27.7558 48.4363 0 0 1 28.4455 50.849 27.7558 48.4363 0 0 1 56.2007 2.4124z" display="inline" paint-order="stroke markers fill"/>
    <path id="mercury-crust-right-1" fill="url(#radialGradient40537)" stroke-opacity="1" stroke-width="2.2099" d="M55.1378 103.844s.0018-4.8937.002-4.9042A26.4934 48.0605 0 0 1 28.6827 50.885 26.4934 48.0605 0 0 1 55.1729 2.8245c.0002-4.4608.002.0002.002-4.9043a29.1959 52.963 0 0 0-.0742.0098 29.1959 52.963 0 0 0-29.1211 52.9551 29.1959 52.963 0 0 0 29.1582 52.959z" display="inline" paint-order="stroke markers fill"/>
    <path id="mercury-crust-left" fill="url(#radialGradient1004)" stroke-opacity="0" stroke-width="2.976" d="M55.1736-2.0724A52.9545 52.9543 0 0 0 2.2191 50.8822a52.9545 52.9543 0 0 0 52.9545 52.9545 29.1911 52.9543 0 0 1-29.1905-52.9545A29.1911 52.9543 0 0 1 55.1736-2.0724z" display="inline" paint-order="stroke markers fill"/>
  </g>
</svg>
