<svg xmlns="http://www.w3.org/2000/svg" xmlns:xlink="http://www.w3.org/1999/xlink" id="svg5" width="146.1587" height="106.8418" version="1.1" viewBox="0 0 146.1587 106.8418">
  <defs id="defs2">
    <radialGradient id="radialGradient1004" cx="76.7318" cy="70.2176" r="53.1757" fx="76.7318" fy="70.2176" gradientTransform="matrix(1.15866 0 0 1.1639 -11.292 -11.6652)" gradientUnits="userSpaceOnUse" xlink:href="#linearGradient1002"/>
    <radialGradient id="radialGradient21083" cx="73.1553" cy="79.7657" r="8.5742" fx="73.1553" fy="79.7657" gradientTransform="matrix(4.24816 .05015 -.04985 4.2228 -240.4495 -251.8293)" gradientUnits="userSpaceOnUse" xlink:href="#linearGradient6210"/>
    <radialGradient id="radialGradient25047" cx="73.9398" cy="82.3085" r="11.0557" fx="73.9398" fy="82.3085" gradientTransform="matrix(3.85776 -.01536 .01372 3.44684 -217.9459 -192.8874)" gradientUnits="userSpaceOnUse" xlink:href="#linearGradient6210"/>
    <radialGradient id="radialGradient69857" cx="76.7318" cy="70.2176" r="53.1757" fx="76.7318" fy="70.2176" gradientTransform="matrix(.87266 0 0 .87277 9.4616 9.0547)" gradientUnits="userSpaceOnUse" xlink:href="#linearGradient5182"/>
    <radialGradient id="radialGradient1086" cx="71.1765" cy="71.1754" r="21.138" fx="71.1765" fy="71.1754" gradientTransform="matrix(1.0461 0 0 1.89766 -15.4606 -81.6498)" gradientUnits="userSpaceOnUse" xlink:href="#linearGradient5182"/>
    <radialGradient id="radialGradient5044" cx="71.1765" cy="71.1754" r="21.138" fx="71.1765" fy="71.1754" gradientTransform="matrix(1.0461 0 0 1.89766 -15.4606 -81.6498)" gradientUnits="userSpaceOnUse" xlink:href="#linearGradient5182"/>
    <linearGradient id="linearGradient6210">
      <stop id="stop6204" offset="0" stop-color="#deedf0" stop-opacity="1"/>
      <stop id="stop6206" offset=".5697" stop-color="#a2c9d4" stop-opacity="1"/>
      <stop id="stop6208" offset="1" stop-color="#4d9db5" stop-opacity="1"/>
    </linearGradient>
    <linearGradient id="linearGradient5182">
      <stop id="stop5174" offset="0" stop-color="#8cbaeb" stop-opacity="1"/>
      <stop id="stop5178" offset=".7897" stop-color="#1f68b8" stop-opacity="1"/>
      <stop id="stop5180" offset="1" stop-color="#1b5a9f" stop-opacity="1"/>
    </linearGradient>
    <linearGradient id="linearGradient1002">
      <stop id="stop998" offset="0" stop-color="#ffc922" stop-opacity="1"/>
      <stop id="stop2416" offset=".4734" stop-color="#7c80d0" stop-opacity="1"/>
      <stop id="stop1966" offset=".8971" stop-color="#34388f" stop-opacity="1"/>
      <stop id="stop1000" offset="1" stop-color="#d1e1fc" stop-opacity="1"/>
    </linearGradient>
    <linearGradient id="linearGradient8132">
      <stop id="stop8128" offset="0" stop-color="#ffce00" stop-opacity="1"/>
      <stop id="stop8130" offset="1" stop-color="#ffce00" stop-opacity="0"/>
    </linearGradient>
  </defs>
  <g id="layer1" fill="none" transform="translate(-35.7443 -34.6891)">
    <path id="path1563" stroke="#000" stroke-linecap="butt" stroke-linejoin="miter" stroke-opacity="0" stroke-width="1" d="M9.802 104.703c11.1895-5.7428 23.735-8.8215 36.3119-8.911a132.8835 132.8835 0 0 1 1.5594 0c6.3836.0293 12.8283.213 19.0855-1.0515 6.2573-1.2646 12.4247-4.1503 16.3353-9.196 2.7658-3.5686 4.2519-8.0637 4.4042-12.5762.1524-4.5124-.997-9.0304-3.0676-13.0426-2.0775-4.0255-5.0322-7.5167-7.8212-11.0864-2.789-3.5696-5.4754-7.3302-6.8818-11.6363-2.2717-6.9557-.7984-15.0156 3.7872-20.7179"/>
    <path id="path1567" stroke="#000" stroke-linecap="butt" stroke-linejoin="miter" stroke-opacity="0" stroke-width="1" d="M31.4109 132.995c-.8394-4.1396-.4892-8.5135.9982-12.4669 1.4874-3.9533 4.1072-7.4733 7.4671-10.033 3.4027-2.5923 7.467-4.1671 11.5591-5.4133 4.0921-1.2462 8.2793-2.2 12.2776-3.7204C72.2705 98.107 79.8062 92.3182 88.6634 90c2.2006-.576 4.4793-.93 6.7495-.7861 2.2702.1438 4.5388.8063 6.394 2.1227 1.7643 1.252 3.097 3.0543 3.9771 5.0305.88 1.9762 1.325 4.1246 1.5224 6.2788.3948 4.3086-.1787 8.6534.0698 12.973.4712 8.1873 4.0128 16.162 9.771 22.0013 5.7583 5.8394 13.6826 9.4922 21.8627 10.0778"/>
    <path id="path1571" stroke="#000" stroke-linecap="butt" stroke-linejoin="miter" stroke-opacity="0" stroke-width="1" d="M155.495 132.5495c-8.371 1.9876-17.1554 2.2168-25.6188.6683-3.905-.7144-7.8345-1.8472-11.0365-4.194-1.601-1.1733-2.9983-2.645-3.9798-4.3702-.9815-1.7253-1.5364-3.7094-1.4688-5.6932.0747-2.1906.8866-4.2791 1.6572-6.331.7705-2.052 1.5202-4.176 1.4616-6.367-.0699-2.613-1.2958-5.0784-2.8908-7.1492-1.5951-2.071-3.56-3.821-5.3921-5.6854-1.832-1.8646-3.5684-3.8999-4.5562-6.32-.494-1.21-.7922-2.5077-.7949-3.8147-.003-1.307.297-2.6233.936-3.7634.5899-1.0525 1.4604-1.9392 2.4758-2.591 1.0154-.6518 2.1727-1.0718 3.3624-1.2728 2.3794-.402 4.8428.0696 7.0826.9678 3.629 1.4552 6.7219 3.9769 9.608 6.6147 2.886 2.638 5.6478 5.4456 8.882 7.6427 4.532 3.0785 9.9306 4.8661 15.4042 5.1007 5.4736.2346 11.0053-1.0846 15.784-3.764"/>
    <path id="path1575" stroke="#000" stroke-linecap="butt" stroke-linejoin="miter" stroke-opacity="0" stroke-width="1" d="M166.1881 70.6188c-2.3517 3.9203-5.7766 7.1895-9.802 9.3564-5.2131 2.8065-11.3896 3.7229-17.2236 2.714-5.834-1.009-11.3006-3.9111-15.5239-8.0605-1.925-1.8912-3.595-4.0278-5.5105-5.9286-1.9155-1.9007-4.1425-3.5944-6.742-4.319-2.0158-.5617-4.1445-.5125-6.2364-.4555-2.0918.057-4.2194.1132-6.2388-.4355-2.0204-.549-3.8605-1.6991-5.3092-3.2106-1.4487-1.5115-2.5111-3.376-3.165-5.3648-1.3076-3.978-.972-8.3546.2316-12.3652 2.1715-7.2357 7.1952-13.5733 13.7442-17.339 6.549-3.7657 14.5535-4.9193 21.8994-3.156"/>
    <path id="path1579" stroke="#000" stroke-linecap="butt" stroke-linejoin="miter" stroke-opacity="0" stroke-width="1" d="M65.7178 130.3218c-.7413-.4369-1.3254-1.1245-1.6703-1.9128s-.4542-1.6727-.3483-2.5266c.2119-1.7079 1.2719-3.2364 2.6464-4.2718 1.3746-1.0353 3.0417-1.62 4.727-1.968 1.6854-.3479 3.4073-.4735 5.1155-.6822 2.684-.3279 5.343-.8622 8.038-1.0815 2.695-.2193 5.4659-.1117 8.0082.8091 1.2711.4605 2.4745 1.1237 3.502 2.0024 1.0274.8787 1.876 1.9761 2.4102 3.218.5342 1.242.7472 2.6294.5479 3.9666-.1994 1.3372-.8193 2.618-1.7885 3.5606-1.374 1.3366-3.3574 1.9163-5.274 1.8947-1.9168-.0217-3.7864-.5916-5.5697-1.2945-1.7833-.703-3.5133-1.5444-5.3322-2.1492-1.819-.6047-3.761-.9692-5.6557-.6787-1.5978.245-3.0872.9418-4.6456 1.371-.7792.2147-1.5829.363-2.391.3491-.808-.0139-1.6236-.1959-2.3199-.6062z"/>
    <path id="path1583" stroke="#000" stroke-linecap="butt" stroke-linejoin="miter" stroke-opacity="0" stroke-width=".9554" d="M46.0283 68.7862c-1.1854.0388-2.3757-.2862-3.3943-.8938-1.0186-.6075-1.865-1.4928-2.4552-2.5215-1.1805-2.0575-1.2934-4.6383-.5291-6.8839.7643-2.2456 2.3481-4.1608 4.2685-5.5532 1.9204-1.3925 4.166-2.2877 6.4669-2.8644 1.7397-.436 3.5342-.6977 5.326-.618 1.7917.0797 3.5844.5103 5.1463 1.3918 1.562.8816 2.8826 2.2305 3.5946 3.8766.7121 1.6462.78 3.59.049 5.228-.479 1.0732-1.277 1.9859-2.2107 2.6998-.9337.7139-2.001 1.2373-3.1006 1.6522-2.1993.83-4.5444 1.2408-6.7134 2.1468-1.0626.444-2.0734 1.0029-3.1274 1.4667-1.054.4638-2.1696.8354-3.3206.873z"/>
    <path id="path1845" stroke-width="2.538" d="M133.25 97l-198.4356 59.6232-118.0251-170.2989 125.4921-164.8737 195.5835 68.4013z" transform="translate(23.1683 16.9307)"/>
  </g>
  <g id="layer2" fill-opacity="1" transform="translate(-12.576 -17.7584)">
    <path id="neptune-interior" fill="#533c00" stroke-width=".4475" d="M71.7205 147.5207l-.0056-.3424v-34.8366a23.003 40.9463 0 0 1-23.0022-40.9462 23.003 40.9463 0 0 1 23.002-40.9461A23.003 40.9463 0 0 1 94.717 71.3955a23.003 40.9463 0 0 1-23.0021 40.9462v34.8366z" display="inline"/>
    <path id="neptune-atmosphere-right-2" fill="#4a8cdb" stroke-dasharray="18.7876 56.3628" stroke-width="18.7876" d="M58.5996 106.834A29.4465 53.417 0 0 0 88.047 53.418 29.4465 53.417 0 0 0 58.5996 0v13.3535a22.1124 40.1128 0 0 1 .3984-.0508 22.1124 40.1128 0 0 1 .666.0274A22.1124 40.1128 0 0 1 81.1095 53.418 22.1124 40.1128 0 0 1 59.664 93.4512a22.1124 40.1128 0 0 1-.666.08 22.1124 40.1128 0 0 1-.3985-.0507z" transform="translate(12.576 17.7584)"/>
    <path id="neptune-mantle-right-2" fill="url(#radialGradient1086)" stroke-width=".5768" d="M58.5996 93.4844a22.1124 40.1128 0 0 0 .3984.0468 22.1124 40.1128 0 0 0 .666-.08A22.1124 40.1128 0 0 0 81.1095 53.418 22.1124 40.1128 0 0 0 59.664 13.33a22.1124 40.1128 0 0 0-.666-.0273 22.1124 40.1128 0 0 0-.3985.0469v18.9668a11.7236 21.2672 0 0 1 1.0488-.168 21.2647 21.2647 0 0 1 .0157.002 21.2647 21.2647 0 0 1 21.25 21.2637A21.2647 21.2647 0 0 1 59.7617 74.67a11.7236 21.2672 0 0 1-.0312.0039 11.7236 21.2672 0 0 1-.0664.0098 11.7236 21.2672 0 0 1-.0157.002 11.7236 21.2672 0 0 1-1.0488-.166z" display="inline" transform="translate(12.576 17.7584)"/>
    <path id="neptune-core-left" fill="url(#radialGradient25047)" stroke="none" stroke-dasharray="none" stroke-miterlimit="4" stroke-opacity="1" stroke-width="31.1439" d="M72.5727 49.9103c-11.774-.0012-21.3197 9.5155-21.3205 21.2563-.0012 11.7423 9.545 21.2624 21.3205 21.2612-6.4896-.001-11.7502-9.5172-11.7507-21.2564-.0007-11.7406 5.2603-21.26 11.7507-21.2611z" display="inline"/>
    <path id="neptune-core-right" fill="url(#radialGradient21083)" stroke="none" stroke-opacity="0" stroke-width=".8874" d="M72.2242 49.9074a11.7236 21.2672 0 0 1 .526.0227 11.7236 21.2672 0 0 1 .526.0639 11.7236 21.2672 0 0 1 .5223.109 11.7236 21.2672 0 0 0-.5222-.109 11.7236 21.2672 0 0 0-.526-.0639 11.7236 21.2672 0 0 0-.526-.0227zm0 0A11.7236 21.2672 0 0 0 60.5018 71.177a11.7236 21.2672 0 0 0 11.7224 21.2658 11.7236 21.2672 0 0 0 .0827-.0114 11.7236 21.2672 0 0 0 .03-.0038A21.2647 21.2647 0 0 0 93.49 71.1732a21.2647 21.2647 0 0 0-21.2657-21.2658zm2.292.4133a11.7236 21.2672 0 0 1 .293.1127 11.7236 21.2672 0 0 0-.293-.1127zm1.0632.481a11.7236 21.2672 0 0 1 .218.1164 11.7236 21.2672 0 0 0-.218-.1165zm.4772.278a11.7236 21.2672 0 0 1 .2254.1427 11.7236 21.2672 0 0 0-.2254-.1427zm.5034.3419a11.7236 21.2672 0 0 1 .203.1465 11.7236 21.2672 0 0 0-.203-.1465zm.3983.3006a11.7236 21.2672 0 0 1 .3382.2817 11.7236 21.2672 0 0 0-.3382-.2817zm.3908.3268a11.7236 21.2672 0 0 1 .3945.3645 11.7236 21.2672 0 0 0-.3945-.3645zm.4959.4622a11.7236 21.2672 0 0 1 .387.402 11.7236 21.2672 0 0 0-.387-.402zm.4058.4245a11.7236 21.2672 0 0 1 .432.4922 11.7236 21.2672 0 0 1 .3607.4471 11.7236 21.2672 0 0 0-.3606-.447 11.7236 21.2672 0 0 0-.4321-.4923zm.9768 1.1836a11.7236 21.2672 0 0 1 .2443.3419 11.7236 21.2672 0 0 0-.2443-.342zm.387.5485a11.7236 21.2672 0 0 1 .3006.4546 11.7236 21.2672 0 0 0-.3006-.4546zm.3457.5298a11.7236 21.2672 0 0 1 .3043.496 11.7236 21.2672 0 0 0-.3043-.496zm.4584.7702a11.7236 21.2672 0 0 1 .1916.3494 11.7236 21.2672 0 0 0-.1916-.3494zm.3456.6387a11.7236 21.2672 0 0 1 .2743.5486 11.7236 21.2672 0 0 0-.2743-.5486zm.3006.6012a11.7236 21.2672 0 0 1 .3006.65 11.7236 21.2672 0 0 0-.3006-.65zm.3494.7627a11.7236 21.2672 0 0 1 .2555.6124 11.7236 21.2672 0 0 0-.2555-.6124zm.327.7815a11.7236 21.2672 0 0 1 .1802.4734 11.7236 21.2672 0 0 0-.1803-.4734zm.5748 1.6005a11.7236 21.2672 0 0 1 .1728.5448 11.7236 21.2672 0 0 0-.1728-.5448zm.4884 1.657a11.7236 21.2672 0 0 1 .1879.7514 11.7236 21.2672 0 0 0-.1879-.7514zm.2066.8265a11.7236 21.2672 0 0 1 .1691.759 11.7236 21.2672 0 0 0-.169-.759zm.1992.913a11.7236 21.2672 0 0 1 .1653.8567 11.7236 21.2672 0 0 1 .1503.913 11.7236 21.2672 0 0 1 .0902.6425 11.7236 21.2672 0 0 0-.0902-.6425 11.7236 21.2672 0 0 0-.1503-.913 11.7236 21.2672 0 0 0-.1653-.8567zm.5523 3.6483a11.7236 21.2672 0 0 1 .0413.447 11.7236 21.2672 0 0 0-.0413-.447z" display="inline" paint-order="stroke markers fill"/>
    <path id="neptune-mantle-right-1" fill="url(#radialGradient5044)" stroke-width=".5768" d="M58.5996 93.4844V74.5195A11.7236 21.2672 0 0 1 47.9258 53.418a11.7236 21.2672 0 0 1 10.6738-21.1016V13.3496A22.1124 40.1128 0 0 0 36.8848 53.418a22.1124 40.1128 0 0 0 21.7148 40.0664z" display="inline" transform="translate(12.576 17.7584)"/>
    <path id="neptune-mantle-left" fill="url(#radialGradient69857)" stroke="none" stroke-opacity="0" stroke-width="2.251" d="M71.573 31.1187a40.051 40.0563 0 0 0-40.051 40.0566 40.051 40.0563 0 0 0 40.051 40.0565 22.078 40.0563 0 0 1-22.0777-40.0565A22.078 40.0563 0 0 1 71.573 31.1187z" display="inline" paint-order="stroke markers fill"/>
    <path id="neptune-atmosphere-right-1" fill="#4a8cdb" stroke-dasharray="18.7876 56.3628" stroke-width="18.7876" d="M58.5996 106.834V93.4805A22.1124 40.1128 0 0 1 36.8848 53.418a22.1124 40.1128 0 0 1 21.7148-40.0645V0a29.4465 53.417 0 0 0-29.4453 53.418 29.4465 53.417 0 0 0 29.4453 53.416z" display="inline" transform="translate(12.576 17.7584)"/>
    <path id="neptune-atmosphere-left" fill="url(#radialGradient1004)" stroke="none" stroke-opacity="0" stroke-width="2.9952" d="M71.1756 17.7584a53.1772 53.4174 0 0 0-53.1772 53.4177 53.1772 53.4174 0 0 0 53.1772 53.4177A29.3139 53.4174 0 0 1 41.8623 71.176a29.3139 53.4174 0 0 1 29.3133-53.4177z" paint-order="stroke markers fill"/>
  </g>
</svg>
