<svg xmlns="http://www.w3.org/2000/svg" xmlns:xlink="http://www.w3.org/1999/xlink" id="svg5" width="146.1587" height="106.8418" version="1.1" viewBox="0 0 146.1587 106.8418">
  <defs id="defs2">
    <radialGradient id="radialGradient1004" cx="76.7318" cy="70.2176" r="53.1757" fx="76.7318" fy="70.2176" gradientTransform="matrix(1.15866 0 0 1.1639 -11.292 -11.6652)" gradientUnits="userSpaceOnUse" xlink:href="#linearGradient1002"/>
    <radialGradient id="radialGradient21083" cx="73.4477" cy="79.6142" r="8.5742" fx="73.4477" fy="79.6142" gradientTransform="matrix(7.30627 .08624 -.08573 7.26266 -465.6386 -484.3494)" gradientUnits="userSpaceOnUse" xlink:href="#linearGradient12626"/>
    <radialGradient id="radialGradient69857" cx="60.7405" cy="105.2934" r="53.1757" fx="60.7405" fy="105.2934" gradientTransform="matrix(1.29455 -.23404 .20886 1.15527 -36.5082 -7.4587)" gradientUnits="userSpaceOnUse" xlink:href="#linearGradient12626"/>
    <radialGradient id="radialGradient15823" cx="76.7318" cy="70.2176" r="53.1757" fx="76.7318" fy="70.2176" gradientTransform="matrix(.93559 0 0 .95029 5.5229 3.6589)" gradientUnits="userSpaceOnUse" xlink:href="#linearGradient16119"/>
    <linearGradient id="linearGradient16119">
      <stop id="stop16111" offset="0" stop-color="#ffc922" stop-opacity="1"/>
      <stop id="stop16113" offset=".4734" stop-color="#dff3fb" stop-opacity="1"/>
      <stop id="stop16115" offset=".8971" stop-color="#1aaae5" stop-opacity="1"/>
      <stop id="stop16117" offset="1" stop-color="#dff3fb" stop-opacity="1"/>
    </linearGradient>
    <linearGradient id="linearGradient12626">
      <stop id="stop12620" offset="0" stop-color="#6483a3" stop-opacity="1"/>
      <stop id="stop12622" offset=".5697" stop-color="#ced5dc" stop-opacity="1"/>
      <stop id="stop12624" offset="1" stop-color="#7c8fa2" stop-opacity="1"/>
    </linearGradient>
    <linearGradient id="linearGradient1002">
      <stop id="stop998" offset="0" stop-color="#ffc922" stop-opacity="1"/>
      <stop id="stop2416" offset=".4734" stop-color="#dbbc7c" stop-opacity="1"/>
      <stop id="stop1966" offset=".8971" stop-color="#9b7f46" stop-opacity="1"/>
      <stop id="stop1000" offset="1" stop-color="#ede4df" stop-opacity="1"/>
    </linearGradient>
    <linearGradient id="linearGradient8132">
      <stop id="stop8128" offset="0" stop-color="#ffce00" stop-opacity="1"/>
      <stop id="stop8130" offset="1" stop-color="#ffce00" stop-opacity="0"/>
    </linearGradient>
  </defs>
  <g id="layer1" fill="none" transform="translate(-35.7443 -34.6891)">
    <path id="path1563" stroke="#000" stroke-linecap="butt" stroke-linejoin="miter" stroke-opacity="0" stroke-width="1" d="M9.802 104.703c11.1895-5.7428 23.735-8.8215 36.3119-8.911a132.8835 132.8835 0 0 1 1.5594 0c6.3836.0293 12.8283.213 19.0855-1.0515 6.2573-1.2646 12.4247-4.1503 16.3353-9.196 2.7658-3.5686 4.2519-8.0637 4.4042-12.5762.1524-4.5124-.997-9.0304-3.0676-13.0426-2.0775-4.0255-5.0322-7.5167-7.8212-11.0864-2.789-3.5696-5.4754-7.3302-6.8818-11.6363-2.2717-6.9557-.7984-15.0156 3.7872-20.7179"/>
    <path id="path1567" stroke="#000" stroke-linecap="butt" stroke-linejoin="miter" stroke-opacity="0" stroke-width="1" d="M31.4109 132.995c-.8394-4.1396-.4892-8.5135.9982-12.4669 1.4874-3.9533 4.1072-7.4733 7.4671-10.033 3.4027-2.5923 7.467-4.1671 11.5591-5.4133 4.0921-1.2462 8.2793-2.2 12.2776-3.7204C72.2705 98.107 79.8062 92.3182 88.6634 90c2.2006-.576 4.4793-.93 6.7495-.7861 2.2702.1438 4.5388.8063 6.394 2.1227 1.7643 1.252 3.097 3.0543 3.9771 5.0305.88 1.9762 1.325 4.1246 1.5224 6.2788.3948 4.3086-.1787 8.6534.0698 12.973.4712 8.1873 4.0128 16.162 9.771 22.0013 5.7583 5.8394 13.6826 9.4922 21.8627 10.0778"/>
    <path id="path1571" stroke="#000" stroke-linecap="butt" stroke-linejoin="miter" stroke-opacity="0" stroke-width="1" d="M155.495 132.5495c-8.371 1.9876-17.1554 2.2168-25.6188.6683-3.905-.7144-7.8345-1.8472-11.0365-4.194-1.601-1.1733-2.9983-2.645-3.9798-4.3702-.9815-1.7253-1.5364-3.7094-1.4688-5.6932.0747-2.1906.8866-4.2791 1.6572-6.331.7705-2.052 1.5202-4.176 1.4616-6.367-.0699-2.613-1.2958-5.0784-2.8908-7.1492-1.5951-2.071-3.56-3.821-5.3921-5.6854-1.832-1.8646-3.5684-3.8999-4.5562-6.32-.494-1.21-.7922-2.5077-.7949-3.8147-.003-1.307.297-2.6233.936-3.7634.5899-1.0525 1.4604-1.9392 2.4758-2.591 1.0154-.6518 2.1727-1.0718 3.3624-1.2728 2.3794-.402 4.8428.0696 7.0826.9678 3.629 1.4552 6.7219 3.9769 9.608 6.6147 2.886 2.638 5.6478 5.4456 8.882 7.6427 4.532 3.0785 9.9306 4.8661 15.4042 5.1007 5.4736.2346 11.0053-1.0846 15.784-3.764"/>
    <path id="path1575" stroke="#000" stroke-linecap="butt" stroke-linejoin="miter" stroke-opacity="0" stroke-width="1" d="M166.1881 70.6188c-2.3517 3.9203-5.7766 7.1895-9.802 9.3564-5.2131 2.8065-11.3896 3.7229-17.2236 2.714-5.834-1.009-11.3006-3.9111-15.5239-8.0605-1.925-1.8912-3.595-4.0278-5.5105-5.9286-1.9155-1.9007-4.1425-3.5944-6.742-4.319-2.0158-.5617-4.1445-.5125-6.2364-.4555-2.0918.057-4.2194.1132-6.2388-.4355-2.0204-.549-3.8605-1.6991-5.3092-3.2106-1.4487-1.5115-2.5111-3.376-3.165-5.3648-1.3076-3.978-.972-8.3546.2316-12.3652 2.1715-7.2357 7.1952-13.5733 13.7442-17.339 6.549-3.7657 14.5535-4.9193 21.8994-3.156"/>
    <path id="path1579" stroke="#000" stroke-linecap="butt" stroke-linejoin="miter" stroke-opacity="0" stroke-width="1" d="M65.7178 130.3218c-.7413-.4369-1.3254-1.1245-1.6703-1.9128s-.4542-1.6727-.3483-2.5266c.2119-1.7079 1.2719-3.2364 2.6464-4.2718 1.3746-1.0353 3.0417-1.62 4.727-1.968 1.6854-.3479 3.4073-.4735 5.1155-.6822 2.684-.3279 5.343-.8622 8.038-1.0815 2.695-.2193 5.4659-.1117 8.0082.8091 1.2711.4605 2.4745 1.1237 3.502 2.0024 1.0274.8787 1.876 1.9761 2.4102 3.218.5342 1.242.7472 2.6294.5479 3.9666-.1994 1.3372-.8193 2.618-1.7885 3.5606-1.374 1.3366-3.3574 1.9163-5.274 1.8947-1.9168-.0217-3.7864-.5916-5.5697-1.2945-1.7833-.703-3.5133-1.5444-5.3322-2.1492-1.819-.6047-3.761-.9692-5.6557-.6787-1.5978.245-3.0872.9418-4.6456 1.371-.7792.2147-1.5829.363-2.391.3491-.808-.0139-1.6236-.1959-2.3199-.6062z"/>
    <path id="path1583" stroke="#000" stroke-linecap="butt" stroke-linejoin="miter" stroke-opacity="0" stroke-width=".9554" d="M46.0283 68.7862c-1.1854.0388-2.3757-.2862-3.3943-.8938-1.0186-.6075-1.865-1.4928-2.4552-2.5215-1.1805-2.0575-1.2934-4.6383-.5291-6.8839.7643-2.2456 2.3481-4.1608 4.2685-5.5532 1.9204-1.3925 4.166-2.2877 6.4669-2.8644 1.7397-.436 3.5342-.6977 5.326-.618 1.7917.0797 3.5844.5103 5.1463 1.3918 1.562.8816 2.8826 2.2305 3.5946 3.8766.7121 1.6462.78 3.59.049 5.228-.479 1.0732-1.277 1.9859-2.2107 2.6998-.9337.7139-2.001 1.2373-3.1006 1.6522-2.1993.83-4.5444 1.2408-6.7134 2.1468-1.0626.444-2.0734 1.0029-3.1274 1.4667-1.054.4638-2.1696.8354-3.3206.873z"/>
    <path id="path1845" stroke-width="2.538" d="M133.25 97l-198.4356 59.6232-118.0251-170.2989 125.4921-164.8737 195.5835 68.4013z" transform="translate(23.1683 16.9307)"/>
  </g>
  <g id="layer2" fill-opacity="1" transform="translate(-12.576 -17.7584)">
    <path id="mars-interior" fill="#533c00" stroke-width=".4981" d="M71.3372 116.9777c-14.2527-.0009-25.8064-20.2477-25.8065-45.223 0-24.9756 11.5539-45.2224 25.8065-45.2232 14.2526.0008 25.8064 20.2476 25.8065 45.2231 0 24.9755-11.5539 45.2223-25.8065 45.2231 0 39.5768 0 42.9507 0 0z" display="inline"/>
    <path id="pluto-crust-right-2" fill="#327fa6" stroke-dasharray="17.9369 53.8102" stroke-width="17.9369" d="M58.5996 106.834A29.4465 53.417 0 0 0 88.047 53.418 29.4465 53.417 0 0 0 58.5996 0v9.8105a24.1247 43.7649 0 0 1 1.2149-.1582 24.1247 43.7649 0 0 1 24.123 43.7657 24.1247 43.7649 0 0 1-24.123 43.7636 24.1247 43.7649 0 0 1-1.2149-.1582z" display="inline" transform="translate(12.576 17.7584)"/>
    <path id="pluto-mantle-right-2" fill="#70caef" stroke-dasharray="14.6954 44.0862" stroke-width="14.6954" d="M58.5996 97.127c.4022.0361.8077.0547 1.2149.0546C73.1373 97.18 83.937 77.587 83.9375 53.418c.0001-13.044-3.1486-24.7475-8.1387-32.7657a.1384.1384 0 0 1 .004.002c-.0276-.0442-.0564-.0849-.084-.1289a36.5528 36.5528 0 0 0-.7579-1.162 33.7563 33.7563 0 0 0-.8691-1.2169c-2.3156-3.0904-4.9465-5.4414-7.789-6.8789l-.004-.002-.002-.002a16.0756 16.0756 0 0 0-.9804-.4531 15.5736 15.5736 0 0 0-.1485-.0625 15.1323 15.1323 0 0 0-.914-.3418c-.0632-.0215-.1262-.042-.1895-.0625-.296-.0955-.593-.184-.8926-.2598-.0928-.0237-.1862-.0426-.2793-.0644-.266-.0615-.532-.1203-.8007-.166-.1591-.0275-.319-.0447-.4786-.0664-.2179-.0292-.4348-.0634-.6543-.082-.3806-.033-.7618-.0526-1.1445-.0528-.4072 0-.8126.0185-1.2148.0547v7.1758c.313-.0262.6268-.043.9433-.043 3.4096.0002 6.7893.4869 10.0469 1.418 8.1038 10.4596 11.1936 25.3151 11.3438 35.1601-.0115 13.8038-3.3337 26.136-8.5274 34.1524-4.0408 1.5367-8.3275 2.3578-12.67 2.3965l-.0507.0078c-.0475.0068-.095.0133-.1426.0195-.3165 0-.6304-.0168-.9433-.043z" display="inline" transform="translate(12.576 17.7584)"/>
    <path id="pluto-core-right" fill="url(#radialGradient21083)" stroke="none" stroke-opacity="0" stroke-width="1.5262" d="M72.1185 34.5976a20.163 36.5767 0 0 1 .9047.039 20.163 36.5767 0 0 1 .9047.1098 20.163 36.5767 0 0 1 .8982.1874 20.163 36.5767 0 0 0-.8982-.1874 20.163 36.5767 0 0 0-.9047-.1098 20.163 36.5767 0 0 0-.9047-.039zm0 0a20.163 36.5767 0 0 0-20.161 36.5807 20.163 36.5767 0 0 0 20.161 36.5742 20.163 36.5767 0 0 0 .1422-.0196 20.163 36.5767 0 0 0 .0517-.007 36.5725 36.5725 0 0 0 36.3804-36.554 36.5725 36.5725 0 0 0-36.5743-36.5743zm3.9418.7108a20.163 36.5767 0 0 1 .504.1938 20.163 36.5767 0 0 0-.504-.1938zm1.8287.8271a20.163 36.5767 0 0 1 .3748.2004 20.163 36.5767 0 0 0-.3748-.2004zm.8207.4782a20.163 36.5767 0 0 1 .3877.2455 20.163 36.5767 0 0 0-.3877-.2455zm.8658.588a20.163 36.5767 0 0 1 .349.252 20.163 36.5767 0 0 0-.349-.252zm.685.517a20.163 36.5767 0 0 1 .5816.4846 20.163 36.5767 0 0 0-.5816-.4846zm.672.5622a20.163 36.5767 0 0 1 .6785.6268 20.163 36.5767 0 0 0-.6785-.6268zm.853.7948a20.163 36.5767 0 0 1 .6656.6914 20.163 36.5767 0 0 0-.6656-.6914zm.6979.7302a20.163 36.5767 0 0 1 .7431.8465 20.163 36.5767 0 0 1 .6203.769 20.163 36.5767 0 0 0-.6203-.769 20.163 36.5767 0 0 0-.7431-.8465zm1.68 2.0355a20.163 36.5767 0 0 1 .4201.588 20.163 36.5767 0 0 0-.42-.588zm.6657.9434a20.163 36.5767 0 0 1 .5169.7819 20.163 36.5767 0 0 0-.517-.782zm.5944.9111a20.163 36.5767 0 0 1 .5235.853 20.163 36.5767 0 0 0-.5235-.853zm.7884 1.3247a20.163 36.5767 0 0 1 .3295.601 20.163 36.5767 0 0 0-.3295-.601zm.5945 1.0985a20.163 36.5767 0 0 1 .4717.9435 20.163 36.5767 0 0 0-.4717-.9435zm.517 1.034a20.163 36.5767 0 0 1 .5169 1.1178 20.163 36.5767 0 0 0-.517-1.1179zm.6009 1.3117a20.163 36.5767 0 0 1 .4394 1.0533 20.163 36.5767 0 0 0-.4394-1.0533zm.5622 1.344a20.163 36.5767 0 0 1 .3101.8142 20.163 36.5767 0 0 0-.3101-.8142zm.9886 2.7528a20.163 36.5767 0 0 1 .2973.937 20.163 36.5767 0 0 0-.2973-.937zm.84 2.8497a20.163 36.5767 0 0 1 .3232 1.2924 20.163 36.5767 0 0 0-.3231-1.2924zm.3555 1.4216a20.163 36.5767 0 0 1 .2908 1.3053 20.163 36.5767 0 0 0-.2908-1.3053zm.3425 1.5703a20.163 36.5767 0 0 1 .2843 1.4733 20.163 36.5767 0 0 1 .2585 1.5702 20.163 36.5767 0 0 1 .155 1.105 20.163 36.5767 0 0 0-.155-1.105 20.163 36.5767 0 0 0-.2585-1.5702 20.163 36.5767 0 0 0-.2843-1.4733zm.9499 6.2744a20.163 36.5767 0 0 1 .071.769 20.163 36.5767 0 0 0-.071-.769z" display="inline" paint-order="stroke markers fill"/>
    <path id="pluto-core-left" fill="url(#radialGradient69857)" stroke="none" stroke-opacity="0" stroke-width="1.9805" d="M71.6222 34.717A34.0122 36.5133 0 0 0 37.61 71.2305a34.0122 36.5133 0 0 0 34.0122 36.5134 18.7492 36.5133 0 0 1-18.7488-36.5134A18.7492 36.5133 0 0 1 71.6222 34.717z" display="inline" paint-order="stroke markers fill"/>
    <path id="pluto-mantle-right-1" fill="#70caef" stroke-dasharray="14.6954 44.0862" stroke-width="14.6954" d="M58.5996 97.127v-7.1758c-10.6964-.8954-19.218-16.9063-19.2187-36.5313-.001-19.6272 8.5211-35.6415 19.2187-36.537V9.707c-12.7598 1.1472-22.9104 20.2785-22.9101 43.711.0003 23.4317 10.1507 42.5618 22.9101 43.709z" display="inline" transform="translate(12.576 17.7584)"/>
    <path id="pluto-mantle-left" fill="url(#radialGradient15823)" stroke="none" stroke-opacity="0" stroke-width="2.432" d="M72.1134 27.6825A42.9393 43.614 0 0 0 29.174 71.2966a42.9393 43.614 0 0 0 42.9393 43.6142 23.6702 43.614 0 0 1-23.6698-43.6142 23.6702 43.614 0 0 1 23.6698-43.6141z" display="inline" paint-order="stroke markers fill"/>
    <path id="pluto-crust-right-1" fill="#327fa6" stroke-dasharray="17.9369 53.8102" stroke-width="17.9369" d="M58.5996 106.834v-9.8106A24.1247 43.7649 0 0 1 35.6895 53.418 24.1247 43.7649 0 0 1 58.5996 9.8105V0a29.4465 53.417 0 0 0-29.4453 53.418 29.4465 53.417 0 0 0 29.4453 53.416z" display="inline" transform="translate(12.576 17.7584)"/>
    <path id="pluto-crust-left" fill="url(#radialGradient1004)" stroke="none" stroke-opacity="0" stroke-width="2.9952" d="M71.1756 17.7584a53.1772 53.4174 0 0 0-53.1772 53.4177 53.1772 53.4174 0 0 0 53.1772 53.4177A29.3139 53.4174 0 0 1 41.8623 71.176a29.3139 53.4174 0 0 1 29.3133-53.4177z" display="inline" paint-order="stroke markers fill"/>
  </g>
</svg>
