<svg xmlns="http://www.w3.org/2000/svg" xmlns:xlink="http://www.w3.org/1999/xlink" id="svg5" width="146.1587" height="106.8418" version="1.1" viewBox="0 0 146.1587 106.8418">
  <defs id="defs2">
    <radialGradient id="radialGradient1004" cx="76.7318" cy="70.2176" r="53.1757" fx="76.7318" fy="70.2176" gradientTransform="matrix(1.15866 0 0 1.1639 -11.292 -11.6652)" gradientUnits="userSpaceOnUse" xlink:href="#linearGradient1002"/>
    <radialGradient id="radialGradient21083" cx="73.4477" cy="79.6142" r="8.5742" fx="73.4477" fy="79.6142" gradientTransform="matrix(3.78013 .04462 -.04436 3.75757 -207.0647 -216.2432)" gradientUnits="userSpaceOnUse" xlink:href="#linearGradient72775"/>
    <radialGradient id="radialGradient25047" cx="73.9398" cy="82.3085" r="11.0557" fx="73.9398" fy="82.3085" gradientTransform="matrix(3.4342 -.01367 .01222 3.0684 -187.408 -163.89)" gradientUnits="userSpaceOnUse" xlink:href="#linearGradient72775"/>
    <radialGradient id="radialGradient68476" cx="71.1765" cy="71.1754" r="21.138" fx="71.1765" fy="71.1754" gradientTransform="matrix(.93085 0 0 1.6886 -8.2488 -66.7692)" gradientUnits="userSpaceOnUse" xlink:href="#linearGradient68474"/>
    <radialGradient id="radialGradient69857" cx="76.7318" cy="70.2176" r="53.1757" fx="76.7318" fy="70.2176" gradientTransform="matrix(.77761 0 0 .77772 15.2343 15.8214)" gradientUnits="userSpaceOnUse" xlink:href="#linearGradient72593"/>
    <linearGradient id="linearGradient72775">
      <stop id="stop72769" offset="0" stop-color="#caced0" stop-opacity="1"/>
      <stop id="stop72771" offset=".5697" stop-color="#b7b9ba" stop-opacity="1"/>
      <stop id="stop72773" offset="1" stop-color="#55504e" stop-opacity="1"/>
    </linearGradient>
    <linearGradient id="linearGradient72593">
      <stop id="stop72587" offset="0" stop-color="#eae7e0" stop-opacity="1"/>
      <stop id="stop72589" offset=".5896" stop-color="#4b3a1d" stop-opacity="1"/>
      <stop id="stop72591" offset="1" stop-color="#372405" stop-opacity="1"/>
    </linearGradient>
    <linearGradient id="linearGradient68474">
      <stop id="stop68470" offset="0" stop-color="#eae7e0" stop-opacity="1"/>
      <stop id="stop68798" offset=".5896" stop-color="#70562c" stop-opacity="1"/>
      <stop id="stop68472" offset="1" stop-color="#372405" stop-opacity="1"/>
    </linearGradient>
    <linearGradient id="linearGradient1002">
      <stop id="stop998" offset="0" stop-color="#ffc922" stop-opacity="1"/>
      <stop id="stop2416" offset=".4734" stop-color="#cbcbcb" stop-opacity="1"/>
      <stop id="stop1966" offset=".8971" stop-color="#baad93" stop-opacity="1"/>
      <stop id="stop1000" offset="1" stop-color="#e8ddd6" stop-opacity="1"/>
    </linearGradient>
    <linearGradient id="linearGradient8132">
      <stop id="stop8128" offset="0" stop-color="#ffce00" stop-opacity="1"/>
      <stop id="stop8130" offset="1" stop-color="#ffce00" stop-opacity="0"/>
    </linearGradient>
  </defs>
  <g id="layer1" fill="none" transform="translate(-35.7443 -34.6891)">
    <path id="path1563" stroke="#000" stroke-linecap="butt" stroke-linejoin="miter" stroke-opacity="0" stroke-width="1" d="M9.802 104.703c11.1895-5.7428 23.735-8.8215 36.3119-8.911a132.8835 132.8835 0 0 1 1.5594 0c6.3836.0293 12.8283.213 19.0855-1.0515 6.2573-1.2646 12.4247-4.1503 16.3353-9.196 2.7658-3.5686 4.2519-8.0637 4.4042-12.5762.1524-4.5124-.997-9.0304-3.0676-13.0426-2.0775-4.0255-5.0322-7.5167-7.8212-11.0864-2.789-3.5696-5.4754-7.3302-6.8818-11.6363-2.2717-6.9557-.7984-15.0156 3.7872-20.7179"/>
    <path id="path1567" stroke="#000" stroke-linecap="butt" stroke-linejoin="miter" stroke-opacity="0" stroke-width="1" d="M31.4109 132.995c-.8394-4.1396-.4892-8.5135.9982-12.4669 1.4874-3.9533 4.1072-7.4733 7.4671-10.033 3.4027-2.5923 7.467-4.1671 11.5591-5.4133 4.0921-1.2462 8.2793-2.2 12.2776-3.7204C72.2705 98.107 79.8062 92.3182 88.6634 90c2.2006-.576 4.4793-.93 6.7495-.7861 2.2702.1438 4.5388.8063 6.394 2.1227 1.7643 1.252 3.097 3.0543 3.9771 5.0305.88 1.9762 1.325 4.1246 1.5224 6.2788.3948 4.3086-.1787 8.6534.0698 12.973.4712 8.1873 4.0128 16.162 9.771 22.0013 5.7583 5.8394 13.6826 9.4922 21.8627 10.0778"/>
    <path id="path1571" stroke="#000" stroke-linecap="butt" stroke-linejoin="miter" stroke-opacity="0" stroke-width="1" d="M155.495 132.5495c-8.371 1.9876-17.1554 2.2168-25.6188.6683-3.905-.7144-7.8345-1.8472-11.0365-4.194-1.601-1.1733-2.9983-2.645-3.9798-4.3702-.9815-1.7253-1.5364-3.7094-1.4688-5.6932.0747-2.1906.8866-4.2791 1.6572-6.331.7705-2.052 1.5202-4.176 1.4616-6.367-.0699-2.613-1.2958-5.0784-2.8908-7.1492-1.5951-2.071-3.56-3.821-5.3921-5.6854-1.832-1.8646-3.5684-3.8999-4.5562-6.32-.494-1.21-.7922-2.5077-.7949-3.8147-.003-1.307.297-2.6233.936-3.7634.5899-1.0525 1.4604-1.9392 2.4758-2.591 1.0154-.6518 2.1727-1.0718 3.3624-1.2728 2.3794-.402 4.8428.0696 7.0826.9678 3.629 1.4552 6.7219 3.9769 9.608 6.6147 2.886 2.638 5.6478 5.4456 8.882 7.6427 4.532 3.0785 9.9306 4.8661 15.4042 5.1007 5.4736.2346 11.0053-1.0846 15.784-3.764"/>
    <path id="path1575" stroke="#000" stroke-linecap="butt" stroke-linejoin="miter" stroke-opacity="0" stroke-width="1" d="M166.1881 70.6188c-2.3517 3.9203-5.7766 7.1895-9.802 9.3564-5.2131 2.8065-11.3896 3.7229-17.2236 2.714-5.834-1.009-11.3006-3.9111-15.5239-8.0605-1.925-1.8912-3.595-4.0278-5.5105-5.9286-1.9155-1.9007-4.1425-3.5944-6.742-4.319-2.0158-.5617-4.1445-.5125-6.2364-.4555-2.0918.057-4.2194.1132-6.2388-.4355-2.0204-.549-3.8605-1.6991-5.3092-3.2106-1.4487-1.5115-2.5111-3.376-3.165-5.3648-1.3076-3.978-.972-8.3546.2316-12.3652 2.1715-7.2357 7.1952-13.5733 13.7442-17.339 6.549-3.7657 14.5535-4.9193 21.8994-3.156"/>
    <path id="path1579" stroke="#000" stroke-linecap="butt" stroke-linejoin="miter" stroke-opacity="0" stroke-width="1" d="M65.7178 130.3218c-.7413-.4369-1.3254-1.1245-1.6703-1.9128s-.4542-1.6727-.3483-2.5266c.2119-1.7079 1.2719-3.2364 2.6464-4.2718 1.3746-1.0353 3.0417-1.62 4.727-1.968 1.6854-.3479 3.4073-.4735 5.1155-.6822 2.684-.3279 5.343-.8622 8.038-1.0815 2.695-.2193 5.4659-.1117 8.0082.8091 1.2711.4605 2.4745 1.1237 3.502 2.0024 1.0274.8787 1.876 1.9761 2.4102 3.218.5342 1.242.7472 2.6294.5479 3.9666-.1994 1.3372-.8193 2.618-1.7885 3.5606-1.374 1.3366-3.3574 1.9163-5.274 1.8947-1.9168-.0217-3.7864-.5916-5.5697-1.2945-1.7833-.703-3.5133-1.5444-5.3322-2.1492-1.819-.6047-3.761-.9692-5.6557-.6787-1.5978.245-3.0872.9418-4.6456 1.371-.7792.2147-1.5829.363-2.391.3491-.808-.0139-1.6236-.1959-2.3199-.6062z"/>
    <path id="path1583" stroke="#000" stroke-linecap="butt" stroke-linejoin="miter" stroke-opacity="0" stroke-width=".9554" d="M46.0283 68.7862c-1.1854.0388-2.3757-.2862-3.3943-.8938-1.0186-.6075-1.865-1.4928-2.4552-2.5215-1.1805-2.0575-1.2934-4.6383-.5291-6.8839.7643-2.2456 2.3481-4.1608 4.2685-5.5532 1.9204-1.3925 4.166-2.2877 6.4669-2.8644 1.7397-.436 3.5342-.6977 5.326-.618 1.7917.0797 3.5844.5103 5.1463 1.3918 1.562.8816 2.8826 2.2305 3.5946 3.8766.7121 1.6462.78 3.59.049 5.228-.479 1.0732-1.277 1.9859-2.2107 2.6998-.9337.7139-2.001 1.2373-3.1006 1.6522-2.1993.83-4.5444 1.2408-6.7134 2.1468-1.0626.444-2.0734 1.0029-3.1274 1.4667-1.054.4638-2.1696.8354-3.3206.873z"/>
    <path id="path1845" stroke-width="2.538" d="M133.25 97l-198.4356 59.6232-118.0251-170.2989 125.4921-164.8737 195.5835 68.4013z" transform="translate(23.1683 16.9307)"/>
  </g>
  <g id="layer2" fill-opacity="1" transform="translate(-12.576 -17.7584)">
    <path id="mars-interior" fill="#533c00" stroke-width=".4155" d="M70.306 142.2174l-.0054-.3145v-31.996a21.5887 37.6076 0 0 1-21.588-37.6075 21.5887 37.6076 0 0 1 21.588-37.6074 21.5887 37.6076 0 0 1 21.5879 37.6074 21.5887 37.6076 0 0 1-21.588 37.6075v31.996z" display="inline"/>
    <path id="saturn-atmosphere-right-2" fill="#e8d2b9" stroke-width=".7681" d="M58.5996 106.834A29.4465 53.417 0 0 0 88.047 53.418 29.4465 53.417 0 0 0 58.5996 0v17.752a19.6763 35.6935 0 0 1 19.082 35.666 19.6763 35.6935 0 0 1-19.082 35.6093z" transform="translate(12.576 17.7584)"/>
    <path id="saturn-mantle-right-2" fill="url(#radialGradient68476)" stroke-width=".5133" d="M58.5996 89.041a19.6763 35.6935 0 0 0 19.082-35.623 19.6763 35.6935 0 0 0-19.082-35.672v16.7481a18.922 18.922 0 0 1 18.9082 18.92 18.922 18.922 0 0 1-18.8223 18.914 10.432 18.9241 0 0 1-.0273.004 10.432 18.9241 0 0 1-.0586.0077z" display="inline" transform="translate(12.576 17.7584)"/>
    <path id="saturn-core-left" fill="url(#radialGradient25047)" stroke="none" stroke-dasharray="none" stroke-miterlimit="4" stroke-opacity="1" stroke-width="27.7246" d="M71.2146 52.2506a18.9777 18.9242 0 0 1 .922.0234 18.9754 18.922 0 0 0-.922-.0234zm0 0A18.9777 18.9242 0 0 0 52.235 71.1734a18.9777 18.9242 0 0 0 18.9797 18.9262 10.4614 18.9241 0 0 1-10.4604-18.9228 10.4614 18.9241 0 0 1 10.4604-18.9262zm0 37.849A18.9777 18.9242 0 0 0 83.68 85.4324a18.9754 18.922 0 0 1-12.3648 4.6538 10.4614 18.9241 0 0 1-.0268.0034 10.4614 18.9241 0 0 1-.0737.0102zM83.68 85.4324a18.9777 18.9242 0 0 0 4.8044-6.4257 18.9754 18.922 0 0 1-4.8044 6.4257zm4.8044-6.4257a18.9777 18.9242 0 0 0 .9421-2.5208 18.9754 18.922 0 0 1-.942 2.5208zm.9421-2.5208a18.9777 18.9242 0 0 0 .57-2.6278 18.9754 18.922 0 0 1-.57 2.6278zM72.2506 52.2807a18.9777 18.9242 0 0 1 .7678.0568 18.9754 18.922 0 0 0-.7678-.0568zm.7678.0568a18.9754 18.922 0 0 1 .352.0401 18.9777 18.9242 0 0 0-.352-.0401zm.352.0401a18.9777 18.9242 0 0 1 .5566.0669 18.9754 18.922 0 0 0-.5566-.0669zm.5566.0669a18.9754 18.922 0 0 1 .2917.0501 18.9777 18.9242 0 0 0-.2917-.0501zm.2917.0501a18.9777 18.9242 0 0 1 .6504.1137 18.9754 18.922 0 0 0-.6504-.1137zm.8147.1471a18.9777 18.9242 0 0 1 .7342.1639 18.9754 18.922 0 0 0-.7342-.1639zm.9253.214a18.9777 18.9242 0 0 1 .6639.1839 18.9754 18.922 0 0 0-.6639-.1839zm.6639.1839a18.9754 18.922 0 0 1 .248.0769 18.9777 18.9242 0 0 0-.248-.0769zm.248.0769a18.9777 18.9242 0 0 1 .627.204 18.9754 18.922 0 0 0-.627-.204zm.627.204a18.9754 18.922 0 0 1 .2582.0935 18.9777 18.9242 0 0 0-.2582-.0936zm.2582.0935a18.9777 18.9242 0 0 1 .58.224 18.9754 18.922 0 0 0-.58-.224zm.58.224a18.9754 18.922 0 0 1 .275.1137 18.9777 18.9242 0 0 0-.275-.1137zm.275.1137a18.9777 18.9242 0 0 1 .6101.2708 18.9754 18.922 0 0 0-.6102-.2708zm.6101.2708a18.9754 18.922 0 0 1 .1877.087 18.9777 18.9242 0 0 0-.1877-.087zm.1877.087a18.9777 18.9242 0 0 1 .5633.2808 18.9754 18.922 0 0 0-.5633-.2809zm.5633.2808a18.9754 18.922 0 0 1 .3286.1738 18.9777 18.9242 0 0 0-.3286-.1738zm.3286.1738a18.9777 18.9242 0 0 1 .399.224 18.9754 18.922 0 0 0-.399-.224zm.399.224a18.9754 18.922 0 0 1 .3955.234 18.9777 18.9242 0 0 0-.3956-.234zm.3955.234a18.9777 18.9242 0 0 1 .5633.3578 18.9754 18.922 0 0 0-.5633-.3578zm.6806.4313a18.9777 18.9242 0 0 1 .7142.5015 18.9754 18.922 0 0 0-.7142-.5015zm.7477.5283a18.9777 18.9242 0 0 1 .6672.5148 18.9754 18.922 0 0 0-.6672-.5148zm.741.575a18.9777 18.9242 0 0 1 .5364.4614 18.9754 18.922 0 0 0-.5364-.4614zm2.1088 2.0227a18.9777 18.9242 0 0 1 .5096.5917 18.9754 18.922 0 0 0-.5096-.5917zm.5096.5917a18.9777 18.9242 0 0 1 .5666.7255 18.9754 18.922 0 0 0-.5666-.7255zm.5935.759a18.9777 18.9242 0 0 1 .5029.712 18.9754 18.922 0 0 0-.503-.712zm.5766.829a18.9777 18.9242 0 0 1 .3588.5617 18.9754 18.922 0 0 0-.3588-.5616zm.3588.5617a18.9754 18.922 0 0 1 .2346.3945 18.9777 18.9242 0 0 0-.2346-.3945zm.2346.3945a18.9777 18.9242 0 0 1 .2247.3979 18.9754 18.922 0 0 0-.2247-.3979zm.2247.3979a18.9754 18.922 0 0 1 .191.361 18.9777 18.9242 0 0 0-.191-.361zm.191.361a18.9777 18.9242 0 0 1 .2247.4447 18.9754 18.922 0 0 0-.2246-.4446zm.2247.4447a18.9754 18.922 0 0 1 .1777.3778 18.9777 18.9242 0 0 0-.1777-.3778zm.1777.3778a18.9777 18.9242 0 0 1 .2146.4814 18.9754 18.922 0 0 0-.2146-.4814zm.2146.4814a18.9754 18.922 0 0 1 .1174.2875 18.9777 18.9242 0 0 0-.1174-.2875zm.1174.2875a18.9777 18.9242 0 0 1 .2447.632 18.9754 18.922 0 0 0-.2447-.632zm.2447.632a18.9754 18.922 0 0 1 .067.1805 18.9777 18.9242 0 0 0-.067-.1806zm.067.1805a18.9777 18.9242 0 0 1 .218.662 18.9754 18.922 0 0 0-.218-.662zm.218.662a18.9754 18.922 0 0 1 .0737.2407 18.9777 18.9242 0 0 0-.0737-.2408zm.0737.2407a18.9777 18.9242 0 0 1 .1844.662 18.9754 18.922 0 0 0-.1844-.662zm.2347.8525a18.9777 18.9242 0 0 1 .1643.7322 18.9754 18.922 0 0 0-.1643-.7322zm.1978.896a18.9777 18.9242 0 0 1 .114.6486 18.9754 18.922 0 0 0-.114-.6486zm.114.6486a18.9754 18.922 0 0 1 .0503.2908 18.9777 18.9242 0 0 0-.0503-.2908zm.0503.2908a18.9777 18.9242 0 0 1 .067.555 18.9754 18.922 0 0 0-.067-.555zm.067.555a18.9754 18.922 0 0 1 .0403.351 18.9777 18.9242 0 0 0-.0403-.351zm.0403.351a18.9777 18.9242 0 0 1 .057.7657 18.9754 18.922 0 0 0-.057-.7656zm.0637.8793a18.9777 18.9242 0 0 1 .0234.9194 18.9754 18.922 0 0 0-.0234-.9194z" display="inline"/>
    <path id="saturn-core-right" fill="url(#radialGradient21083)" stroke="none" stroke-opacity="0" stroke-width=".7896" d="M71.1611 52.2506a10.432 18.9241 0 0 1 .468.0202 10.432 18.9241 0 0 1 .4681.0568 10.432 18.9241 0 0 1 .4648.097 10.432 18.9241 0 0 0-.4648-.097 10.432 18.9241 0 0 0-.468-.0568 10.432 18.9241 0 0 0-.468-.0202zm0 0a10.432 18.9241 0 0 0-10.431 18.9262 10.432 18.9241 0 0 0 10.431 18.9228 10.432 18.9241 0 0 0 .0736-.0101 10.432 18.9241 0 0 0 .0267-.0034A18.922 18.922 0 0 0 90.084 71.1734 18.922 18.922 0 0 0 71.161 52.2506zm2.0394.3677a10.432 18.9241 0 0 1 .2608.1003 10.432 18.9241 0 0 0-.2608-.1003zm.9462.428a10.432 18.9241 0 0 1 .1939.1036 10.432 18.9241 0 0 0-.194-.1036zm.4246.2474a10.432 18.9241 0 0 1 .2006.127 10.432 18.9241 0 0 0-.2006-.127zm.448.3042a10.432 18.9241 0 0 1 .1805.1304 10.432 18.9241 0 0 0-.1805-.1304zm.3543.2675a10.432 18.9241 0 0 1 .301.2507 10.432 18.9241 0 0 0-.301-.2507zm.3477.2908a10.432 18.9241 0 0 1 .351.3243 10.432 18.9241 0 0 0-.351-.3243zm.4413.4112a10.432 18.9241 0 0 1 .3444.3578 10.432 18.9241 0 0 0-.3444-.3578zm.3611.3778a10.432 18.9241 0 0 1 .3845.438 10.432 18.9241 0 0 1 .321.3979 10.432 18.9241 0 0 0-.321-.3979 10.432 18.9241 0 0 0-.3845-.438zm.8693 1.0532a10.432 18.9241 0 0 1 .2173.3042 10.432 18.9241 0 0 0-.2173-.3042zm.3443.488a10.432 18.9241 0 0 1 .2675.4046 10.432 18.9241 0 0 0-.2675-.4045zm.3076.4715a10.432 18.9241 0 0 1 .2708.4413 10.432 18.9241 0 0 0-.2708-.4413zm.4079.6853a10.432 18.9241 0 0 1 .1705.311 10.432 18.9241 0 0 0-.1705-.311zm.3076.5684a10.432 18.9241 0 0 1 .244.4881 10.432 18.9241 0 0 0-.244-.4881zm.2674.535a10.432 18.9241 0 0 1 .2675.5783 10.432 18.9241 0 0 0-.2675-.5784zm.311.6786a10.432 18.9241 0 0 1 .2273.545 10.432 18.9241 0 0 0-.2274-.545zm.2908.6954a10.432 18.9241 0 0 1 .1605.4213 10.432 18.9241 0 0 0-.1605-.4213zm.5115 1.4242a10.432 18.9241 0 0 1 .1538.4848 10.432 18.9241 0 0 0-.1538-.4848zm.4347 1.4744a10.432 18.9241 0 0 1 .1671.6687 10.432 18.9241 0 0 0-.1671-.6687zm.1838.7355a10.432 18.9241 0 0 1 .1505.6754 10.432 18.9241 0 0 0-.1505-.6754zm.1772.8124a10.432 18.9241 0 0 1 .1471.7623 10.432 18.9241 0 0 1 .1338.8124 10.432 18.9241 0 0 1 .0802.5717 10.432 18.9241 0 0 0-.0802-.5717 10.432 18.9241 0 0 0-.1338-.8124 10.432 18.9241 0 0 0-.147-.7623zm.4915 3.2463a10.432 18.9241 0 0 1 .0368.3979 10.432 18.9241 0 0 0-.0368-.3979z" display="inline" paint-order="stroke markers fill"/>
    <path id="saturn-mantle-left" fill="url(#radialGradient69857)" stroke="none" stroke-opacity="0" stroke-width="2.0058" d="M70.5808 35.4823A35.6889 35.6936 0 0 0 34.892 71.1761a35.6889 35.6936 0 0 0 35.6888 35.6938 19.6734 35.6936 0 0 1-19.673-35.6938 19.6734 35.6936 0 0 1 19.673-35.6938z" display="inline" paint-order="stroke markers fill"/>
    <path id="saturn-mantle-right-1" fill="url(#radialGradient68476)" stroke-width=".5133" d="M58.5996 89.041V72.3398a10.432 18.9241 0 0 1-.0137.002A10.432 18.9241 0 0 1 48.1543 53.418a10.432 18.9241 0 0 1 10.4316-18.9258 18.922 18.922 0 0 1 .0137.002V17.7461a19.6763 35.6935 0 0 0-.5937-.0234A19.6763 35.6935 0 0 0 38.33 53.418a19.6763 35.6935 0 0 0 19.6758 35.6933 19.6763 35.6935 0 0 0 .5937-.0703z" display="inline" transform="translate(12.576 17.7584)"/>
    <path id="saturn-atmosphere-right-1" fill="#e8d2b9" stroke-width=".7681" d="M58.5996 106.834V89.0273a19.6763 35.6935 0 0 1-.5937.084A19.6763 35.6935 0 0 1 38.33 53.418a19.6763 35.6935 0 0 1 19.6758-35.6953 19.6763 35.6935 0 0 1 .5937.0293V0a29.4465 53.417 0 0 0-29.4453 53.418 29.4465 53.417 0 0 0 29.4453 53.416z" transform="translate(12.576 17.7584)"/>
    <path id="saturn-atmosphere-left" fill="url(#radialGradient1004)" stroke="none" stroke-opacity="0" stroke-width="2.9952" d="M71.1756 17.7584a53.1772 53.4174 0 0 0-53.1772 53.4177 53.1772 53.4174 0 0 0 53.1772 53.4177A29.3139 53.4174 0 0 1 41.8623 71.176a29.3139 53.4174 0 0 1 29.3133-53.4177z" paint-order="stroke markers fill"/>
  </g>
</svg>
