<svg id="sun-interaction" width="150" height="106.5918" version="1.1" viewBox="0 0 150 106.5918">
  <defs id="defs2">
    <radialGradient id="radialGradient1004" cx="76.7318" cy="70.2176" r="53.1757" fx="76.7318" fy="70.2176" gradientTransform="matrix(1.15863 0 0 1.15862 -11.2904 -11.29)" gradientUnits="userSpaceOnUse" xlink:href="#linearGradient1002"/>
    <radialGradient id="radialGradient3874" cx="71.1757" cy="71.1755" r="53.1757" fx="71.1757" fy="71.1755" gradientTransform="matrix(.55375 0 0 1.00453 36.0093 2.0916)" gradientUnits="userSpaceOnUse" xlink:href="#linearGradient14583"/>
    <radialGradient id="radialGradient14411" cx="71.1757" cy="71.1755" r="53.1757" fx="71.1757" fy="71.1755" gradientTransform="matrix(.36384 0 0 .66002 49.5263 26.612)" gradientUnits="userSpaceOnUse" xlink:href="#linearGradient15299"/>
    <radialGradient id="radialGradient21083" cx="73.9648" cy="78.6784" r="8.5742" fx="73.9648" fy="78.6784" gradientTransform="matrix(1.83098 0 0 2.36088 -65.7103 -108.0126)" gradientUnits="userSpaceOnUse" xlink:href="#linearGradient21081"/>
    <radialGradient id="radialGradient25047" cx="74.6084" cy="81.4014" r="11.0557" fx="74.6084" fy="81.4014" gradientTransform="matrix(2.00627 0 0 2.00063 -79.2945 -83.866)" gradientUnits="userSpaceOnUse" xlink:href="#linearGradient25655"/>
    <radialGradient id="radialGradient28554" cx="76.7318" cy="70.2176" r="53.1757" fx="76.7318" fy="70.2176" gradientTransform="translate(16.7847 16.794) scale(.76405)" gradientUnits="userSpaceOnUse" xlink:href="#linearGradient29072"/>
    <radialGradient id="radialGradient30397" cx="71.1757" cy="71.1755" r="53.1757" fx="71.1757" fy="71.1755" gradientTransform="matrix(.55375 0 0 1.00453 36.0093 2.0916)" gradientUnits="userSpaceOnUse" xlink:href="#linearGradient14583"/>
    <radialGradient id="radialGradient30399" cx="71.1757" cy="71.1755" r="53.1757" fx="71.1757" fy="71.1755" gradientTransform="matrix(.36384 0 0 .66002 49.5263 26.612)" gradientUnits="userSpaceOnUse" xlink:href="#linearGradient15299"/>
    <linearGradient id="linearGradient29072">
      <stop id="stop29064" offset="0" stop-color="#ffdc1c" stop-opacity="1"/>
      <stop id="stop29066" offset=".481" stop-color="#fff340" stop-opacity="1"/>
      <stop id="stop29068" offset=".8525" stop-color="#ecc400" stop-opacity="1"/>
      <stop id="stop29070" offset="1" stop-color="#fffa3c" stop-opacity="1"/>
    </linearGradient>
    <linearGradient id="linearGradient25655">
      <stop id="stop25649" offset="0" stop-color="#fff" stop-opacity="1"/>
      <stop id="stop25651" offset=".7791" stop-color="#f1ffbd" stop-opacity="1"/>
      <stop id="stop25653" offset="1" stop-color="#fbff63" stop-opacity="1"/>
    </linearGradient>
    <linearGradient id="linearGradient21081">
      <stop id="stop21077" offset="0" stop-color="#fff" stop-opacity="1"/>
      <stop id="stop21277" offset=".7536" stop-color="#f1ffbd" stop-opacity="1"/>
      <stop id="stop21079" offset="1" stop-color="#fbff63" stop-opacity="1"/>
    </linearGradient>
    <linearGradient id="linearGradient15299">
      <stop id="stop15291" offset="0" stop-color="#ffdc1c" stop-opacity="1"/>
      <stop id="stop15293" offset=".481" stop-color="#fff340" stop-opacity="1"/>
      <stop id="stop15295" offset=".8525" stop-color="#ffd819" stop-opacity="1"/>
      <stop id="stop15297" offset="1" stop-color="#e7bc00" stop-opacity="1"/>
    </linearGradient>
    <linearGradient id="linearGradient14583">
      <stop id="stop14575" offset="0" stop-color="#fffb7d" stop-opacity="1"/>
      <stop id="stop14577" offset=".481" stop-color="#fff527" stop-opacity="1"/>
      <stop id="stop14579" offset=".8525" stop-color="#ec9500" stop-opacity="1"/>
      <stop id="stop14581" offset="1" stop-color="#e48c00" stop-opacity="1"/>
    </linearGradient>
    <linearGradient id="linearGradient1002">
      <stop id="stop998" offset="0" stop-color="#ffc922" stop-opacity="1"/>
      <stop id="stop2416" offset=".445" stop-color="#ffbb1c" stop-opacity="1"/>
      <stop id="stop1966" offset=".8525" stop-color="#c76800" stop-opacity="1"/>
      <stop id="stop1000" offset="1" stop-color="#ffca4c" stop-opacity="1"/>
    </linearGradient>
    <linearGradient id="linearGradient8132">
      <stop id="stop8128" offset="0" stop-color="#ffce00" stop-opacity="1"/>
      <stop id="stop8130" offset="1" stop-color="#ffce00" stop-opacity="0"/>
    </linearGradient>
  </defs>
  <g id="layer1" fill="none" transform="translate(-35.4943 -34.931)">
    <path id="path1563" stroke="#000" stroke-linecap="butt" stroke-linejoin="miter" stroke-opacity="0" stroke-width="1" d="M9.802 104.703c11.1895-5.7428 23.735-8.8215 36.3119-8.911a132.8835 132.8835 0 0 1 1.5594 0c6.3836.0293 12.8283.213 19.0855-1.0515 6.2573-1.2646 12.4247-4.1503 16.3353-9.196 2.7658-3.5686 4.2519-8.0637 4.4042-12.5762.1524-4.5124-.997-9.0304-3.0676-13.0426-2.0775-4.0255-5.0322-7.5167-7.8212-11.0864-2.789-3.5696-5.4754-7.3302-6.8818-11.6363-2.2717-6.9557-.7984-15.0156 3.7872-20.7179"/>
    <path id="path1567" stroke="#000" stroke-linecap="butt" stroke-linejoin="miter" stroke-opacity="0" stroke-width="1" d="M31.4109 132.995c-.8394-4.1396-.4892-8.5135.9982-12.4669 1.4874-3.9533 4.1072-7.4733 7.4671-10.033 3.4027-2.5923 7.467-4.1671 11.5591-5.4133 4.0921-1.2462 8.2793-2.2 12.2776-3.7204C72.2705 98.107 79.8062 92.3182 88.6634 90c2.2006-.576 4.4793-.93 6.7495-.7861 2.2702.1438 4.5388.8063 6.394 2.1227 1.7643 1.252 3.097 3.0543 3.9771 5.0305.88 1.9762 1.325 4.1246 1.5224 6.2788.3948 4.3086-.1787 8.6534.0698 12.973.4712 8.1873 4.0128 16.162 9.771 22.0013 5.7583 5.8394 13.6826 9.4922 21.8627 10.0778"/>
    <path id="path1571" stroke="#000" stroke-linecap="butt" stroke-linejoin="miter" stroke-opacity="0" stroke-width="1" d="M155.495 132.5495c-8.371 1.9876-17.1554 2.2168-25.6188.6683-3.905-.7144-7.8345-1.8472-11.0365-4.194-1.601-1.1733-2.9983-2.645-3.9798-4.3702-.9815-1.7253-1.5364-3.7094-1.4688-5.6932.0747-2.1906.8866-4.2791 1.6572-6.331.7705-2.052 1.5202-4.176 1.4616-6.367-.0699-2.613-1.2958-5.0784-2.8908-7.1492-1.5951-2.071-3.56-3.821-5.3921-5.6854-1.832-1.8646-3.5684-3.8999-4.5562-6.32-.494-1.21-.7922-2.5077-.7949-3.8147-.003-1.307.297-2.6233.936-3.7634.5899-1.0525 1.4604-1.9392 2.4758-2.591 1.0154-.6518 2.1727-1.0718 3.3624-1.2728 2.3794-.402 4.8428.0696 7.0826.9678 3.629 1.4552 6.7219 3.9769 9.608 6.6147 2.886 2.638 5.6478 5.4456 8.882 7.6427 4.532 3.0785 9.9306 4.8661 15.4042 5.1007 5.4736.2346 11.0053-1.0846 15.784-3.764"/>
    <path id="path1575" stroke="#000" stroke-linecap="butt" stroke-linejoin="miter" stroke-opacity="0" stroke-width="1" d="M166.1881 70.6188c-2.3517 3.9203-5.7766 7.1895-9.802 9.3564-5.2131 2.8065-11.3896 3.7229-17.2236 2.714-5.834-1.009-11.3006-3.9111-15.5239-8.0605-1.925-1.8912-3.595-4.0278-5.5105-5.9286-1.9155-1.9007-4.1425-3.5944-6.742-4.319-2.0158-.5617-4.1445-.5125-6.2364-.4555-2.0918.057-4.2194.1132-6.2388-.4355-2.0204-.549-3.8605-1.6991-5.3092-3.2106-1.4487-1.5115-2.5111-3.376-3.165-5.3648-1.3076-3.978-.972-8.3546.2316-12.3652 2.1715-7.2357 7.1952-13.5733 13.7442-17.339 6.549-3.7657 14.5535-4.9193 21.8994-3.156"/>
    <path id="path1579" stroke="#000" stroke-linecap="butt" stroke-linejoin="miter" stroke-opacity="0" stroke-width="1" d="M65.7178 130.3218c-.7413-.4369-1.3254-1.1245-1.6703-1.9128s-.4542-1.6727-.3483-2.5266c.2119-1.7079 1.2719-3.2364 2.6464-4.2718 1.3746-1.0353 3.0417-1.62 4.727-1.968 1.6854-.3479 3.4073-.4735 5.1155-.6822 2.684-.3279 5.343-.8622 8.038-1.0815 2.695-.2193 5.4659-.1117 8.0082.8091 1.2711.4605 2.4745 1.1237 3.502 2.0024 1.0274.8787 1.876 1.9761 2.4102 3.218.5342 1.242.7472 2.6294.5479 3.9666-.1994 1.3372-.8193 2.618-1.7885 3.5606-1.374 1.3366-3.3574 1.9163-5.274 1.8947-1.9168-.0217-3.7864-.5916-5.5697-1.2945-1.7833-.703-3.5133-1.5444-5.3322-2.1492-1.819-.6047-3.761-.9692-5.6557-.6787-1.5978.245-3.0872.9418-4.6456 1.371-.7792.2147-1.5829.363-2.391.3491-.808-.0139-1.6236-.1959-2.3199-.6062z"/>
    <path id="path1583" stroke="#000" stroke-linecap="butt" stroke-linejoin="miter" stroke-opacity="0" stroke-width=".9554" d="M46.0283 68.7862c-1.1854.0388-2.3757-.2862-3.3943-.8938-1.0186-.6075-1.865-1.4928-2.4552-2.5215-1.1805-2.0575-1.2934-4.6383-.5291-6.8839.7643-2.2456 2.3481-4.1608 4.2685-5.5532 1.9204-1.3925 4.166-2.2877 6.4669-2.8644 1.7397-.436 3.5342-.6977 5.326-.618 1.7917.0797 3.5844.5103 5.1463 1.3918 1.562.8816 2.8826 2.2305 3.5946 3.8766.7121 1.6462.78 3.59.049 5.228-.479 1.0732-1.277 1.9859-2.2107 2.6998-.9337.7139-2.001 1.2373-3.1006 1.6522-2.1993.83-4.5444 1.2408-6.7134 2.1468-1.0626.444-2.0734 1.0029-3.1274 1.4667-1.054.4638-2.1696.8354-3.3206.873z"/>
    <path id="path1845" stroke-width="2.538" d="M133.25 97l-198.4356 59.6232-118.0251-170.2989 125.4921-164.8737 195.5835 68.4013z" transform="translate(23.1683 16.9307)"/>
  </g>
  <g id="layer2" fill-opacity="1" stroke="none" transform="translate(-12.326 -18.0003)">
    <ellipse id="sun-interior" cx="71.0157" cy="71.9209" fill="#483c00" stroke-dasharray="none" stroke-miterlimit="4" stroke-opacity="1" stroke-width="17.903" opacity="1" rx="20.02" ry="37.565"/>
    <g id="sun-radiative">
      <path id="sun-left-radiative" fill="url(#radialGradient28554)" stroke-opacity="0" stroke-width="1.9707" d="M71.1662 36.1095a35.0666 35.0664 0 0 0-35.0666 35.0666 35.0666 35.0664 0 0 0 35.0666 35.0666 19.3304 35.0664 0 0 1-19.33-35.0666 19.3304 35.0664 0 0 1 19.33-35.0666z" paint-order="stroke markers fill"/>
      <path id="sun-radiative-right-2" fill="url(#radialGradient30399)" stroke-opacity="0" stroke-width="1.4644" d="M75.4121 108.6836a19.3473 35.097 0 0 0 .0098.002 19.3473 35.097 0 0 0 19.3477-35.0957 19.3473 35.097 0 0 0-19.3477-35.0977 19.3473 35.097 0 0 0-.0059.002l-.002.0293v24.0117a6.0943 11.0554 0 0 1 .0078-.002A11.0542 11.0542 0 0 1 86.4765 73.588a11.0542 11.0542 0 0 1-10.9961 11.0489 6.0943 11.0554 0 0 1-.0156.002 6.0943 11.0554 0 0 1-.043.0059 6.0943 11.0554 0 0 1-.0078-.002v24.0136z" paint-order="stroke markers fill" transform="translate(-4.247 -2.4137)"/>
      <path id="sun-radiative-right-1" fill="url(#radialGradient14411)" stroke-opacity="0" stroke-width="1.4644" d="M75.4121 108.6836l.002-.0273V84.6426a6.0943 11.0554 0 0 1-6.086-11.0528 6.0943 11.0554 0 0 1 6.086-11.0546V38.5234l.002-.0293a19.3473 35.097 0 0 0-19.34 35.0957 19.3473 35.097 0 0 0 19.336 35.0938z" paint-order="stroke markers fill" transform="translate(-4.247 -2.4137)"/>
    </g>
    <g id="sun-core">
      <path id="sun-core-left" fill="url(#radialGradient25047)" stroke-dasharray="none" stroke-miterlimit="4" stroke-opacity="1" stroke-width="16.1967" d="M71.2061 60.1195a11.0868 11.0555 0 0 1 .5386.0136 11.0854 11.0542 0 0 0-.5386-.0136zm0 0A11.0868 11.0555 0 0 0 60.1182 71.174a11.0868 11.0555 0 0 0 11.088 11.0567 6.1116 11.0554 0 0 1-6.111-11.0547 6.1116 11.0554 0 0 1 6.111-11.0566zm0 22.1113a11.0868 11.0555 0 0 0 7.2823-2.7266 11.0854 11.0542 0 0 1-7.2235 2.7188 6.1116 11.0554 0 0 1-.0157.002 6.1116 11.0554 0 0 1-.043.0059zm7.2823-2.7266a11.0868 11.0555 0 0 0 2.8067-3.7539 11.0854 11.0542 0 0 1-2.8067 3.754zm2.8067-3.7539a11.0868 11.0555 0 0 0 .5504-1.4726 11.0854 11.0542 0 0 1-.5504 1.4726zm.5504-1.4726a11.0868 11.0555 0 0 0 .333-1.5352 11.0854 11.0542 0 0 1-.333 1.5352zM71.8113 60.137a11.0868 11.0555 0 0 1 .4486.0332 11.0854 11.0542 0 0 0-.4486-.0332zm.4486.0332a11.0854 11.0542 0 0 1 .2056.0235 11.0868 11.0555 0 0 0-.2056-.0235zm.2056.0235a11.0868 11.0555 0 0 1 .3252.039 11.0854 11.0542 0 0 0-.3252-.039zm.3252.039a11.0854 11.0542 0 0 1 .1704.0293 11.0868 11.0555 0 0 0-.1704-.0293zm.1704.0293a11.0868 11.0555 0 0 1 .38.0664 11.0854 11.0542 0 0 0-.38-.0664zm.476.086a11.0868 11.0555 0 0 1 .4289.0957 11.0854 11.0542 0 0 0-.429-.0957zm.5405.125a11.0868 11.0555 0 0 1 .3878.1074 11.0854 11.0542 0 0 0-.3878-.1074zm.3878.1074a11.0854 11.0542 0 0 1 .145.045 11.0868 11.0555 0 0 0-.145-.045zm.145.045a11.0868 11.0555 0 0 1 .3662.119 11.0854 11.0542 0 0 0-.3662-.119zm.3662.119a11.0854 11.0542 0 0 1 .1508.0547 11.0868 11.0555 0 0 0-.1508-.0546zm.1508.0547a11.0868 11.0555 0 0 1 .3389.1309 11.0854 11.0542 0 0 0-.3389-.1309zm.3389.1309a11.0854 11.0542 0 0 1 .1606.0664 11.0868 11.0555 0 0 0-.1606-.0664zm.1606.0664a11.0868 11.0555 0 0 1 .3565.1582 11.0854 11.0542 0 0 0-.3565-.1582zm.3565.1582a11.0854 11.0542 0 0 1 .1096.0508 11.0868 11.0555 0 0 0-.1096-.0508zm.1096.0508a11.0868 11.0555 0 0 1 .3291.164 11.0854 11.0542 0 0 0-.329-.164zm.3291.164a11.0854 11.0542 0 0 1 .192.1016 11.0868 11.0555 0 0 0-.192-.1015zm.192.1016a11.0868 11.0555 0 0 1 .233.1309 11.0854 11.0542 0 0 0-.233-.1309zm.233.1309a11.0854 11.0542 0 0 1 .2311.1367 11.0868 11.0555 0 0 0-.231-.1367zm.2311.1367a11.0868 11.0555 0 0 1 .3291.209 11.0854 11.0542 0 0 0-.329-.209zm.3977.252a11.0868 11.0555 0 0 1 .4171.293 11.0854 11.0542 0 0 0-.4171-.293zm.4367.3085a11.0868 11.0555 0 0 1 .3898.3008 11.0854 11.0542 0 0 0-.3898-.3008zm.4329.336a11.0868 11.0555 0 0 1 .3134.2695 11.0854 11.0542 0 0 0-.3134-.2695zm1.232 1.1816a11.0868 11.0555 0 0 1 .2977.3457 11.0854 11.0542 0 0 0-.2977-.3457zm.2977.3457a11.0868 11.0555 0 0 1 .331.4239 11.0854 11.0542 0 0 0-.331-.4239zm.3467.4434a11.0868 11.0555 0 0 1 .2938.416 11.0854 11.0542 0 0 0-.2938-.416zm.3369.4844a11.0868 11.0555 0 0 1 .2095.328 11.0854 11.0542 0 0 0-.2095-.328zm.2095.328a11.0854 11.0542 0 0 1 .1371.2306 11.0868 11.0555 0 0 0-.137-.2305zm.1371.2306a11.0868 11.0555 0 0 1 .1313.2324 11.0854 11.0542 0 0 0-.1313-.2324zm.1313.2324a11.0854 11.0542 0 0 1 .1116.211 11.0868 11.0555 0 0 0-.1116-.211zm.1116.211a11.0868 11.0555 0 0 1 .1312.2597 11.0854 11.0542 0 0 0-.1312-.2598zm.1312.2597a11.0854 11.0542 0 0 1 .1038.2207 11.0868 11.0555 0 0 0-.1038-.2207zm.1038.2207a11.0868 11.0555 0 0 1 .1254.2812 11.0854 11.0542 0 0 0-.1254-.2812zm.1254.2812a11.0854 11.0542 0 0 1 .0686.168 11.0868 11.0555 0 0 0-.0686-.168zm.0686.168a11.0868 11.0555 0 0 1 .143.3691 11.0854 11.0542 0 0 0-.143-.3691zm.143.3691a11.0854 11.0542 0 0 1 .0391.1055 11.0868 11.0555 0 0 0-.0392-.1055zm.0391.1055a11.0868 11.0555 0 0 1 .1273.3867 11.0854 11.0542 0 0 0-.1273-.3867zm.1273.3867a11.0854 11.0542 0 0 1 .0431.1407 11.0868 11.0555 0 0 0-.043-.1407zm.0431.1407a11.0868 11.0555 0 0 1 .1077.3867 11.0854 11.0542 0 0 0-.1077-.3867zm.1371.498a11.0868 11.0555 0 0 1 .096.4277 11.0854 11.0542 0 0 0-.096-.4277zm.1156.5234a11.0868 11.0555 0 0 1 .0666.379 11.0854 11.0542 0 0 0-.0666-.379zm.0666.379a11.0854 11.0542 0 0 1 .0294.1699 11.0868 11.0555 0 0 0-.0294-.17zm.0294.1699a11.0868 11.0555 0 0 1 .0391.3242 11.0854 11.0542 0 0 0-.0391-.3242zm.0391.3242a11.0854 11.0542 0 0 1 .0235.205 11.0868 11.0555 0 0 0-.0235-.205zm.0235.205a11.0868 11.0555 0 0 1 .0333.4473 11.0854 11.0542 0 0 0-.0333-.4472zm.0372.5137a11.0868 11.0555 0 0 1 .0138.5371 11.0854 11.0542 0 0 0-.0138-.537z"/>
      <path id="sun-core-right" fill="url(#radialGradient21083)" stroke-opacity="0" stroke-width=".4613" d="M71.1749 60.1195a6.0943 11.0554 0 0 1 .2734.0117 6.0943 11.0554 0 0 1 .2734.0332 6.0943 11.0554 0 0 1 .2715.0566 6.0943 11.0554 0 0 0-.2715-.0566 6.0943 11.0554 0 0 0-.2734-.0332 6.0943 11.0554 0 0 0-.2734-.0117zm0 0A6.0943 11.0554 0 0 0 65.081 71.176a6.0943 11.0554 0 0 0 6.0938 11.0547 6.0943 11.0554 0 0 0 .043-.006 6.0943 11.0554 0 0 0 .0156-.002 11.0542 11.0542 0 0 0 10.996-11.0487A11.0542 11.0542 0 0 0 71.175 60.1195zm1.1914.2148a6.0943 11.0554 0 0 1 .1523.0586 6.0943 11.0554 0 0 0-.1523-.0586zm.5527.25a6.0943 11.0554 0 0 1 .1133.0605 6.0943 11.0554 0 0 0-.1133-.0605zm.248.1445a6.0943 11.0554 0 0 1 .1172.0743 6.0943 11.0554 0 0 0-.1171-.0743zm.2618.1778a6.0943 11.0554 0 0 1 .1054.0761 6.0943 11.0554 0 0 0-.1054-.0761zm.207.1562a6.0943 11.0554 0 0 1 .1758.1465 6.0943 11.0554 0 0 0-.1758-.1465zm.2031.17a6.0943 11.0554 0 0 1 .2051.1894 6.0943 11.0554 0 0 0-.205-.1895zm.2578.2402a6.0943 11.0554 0 0 1 .2012.209 6.0943 11.0554 0 0 0-.2012-.209zm.211.2207a6.0943 11.0554 0 0 1 .2246.2558 6.0943 11.0554 0 0 1 .1875.2325 6.0943 11.0554 0 0 0-.1875-.2325 6.0943 11.0554 0 0 0-.2246-.2558zm.5078.6152a6.0943 11.0554 0 0 1 .127.1777 6.0943 11.0554 0 0 0-.127-.1777zm.2012.2852a6.0943 11.0554 0 0 1 .1562.2363 6.0943 11.0554 0 0 0-.1562-.2363zm.1796.2754a6.0943 11.0554 0 0 1 .1583.2578 6.0943 11.0554 0 0 0-.1583-.2578zm.2383.4003a6.0943 11.0554 0 0 1 .0996.1817 6.0943 11.0554 0 0 0-.0996-.1817zm.1797.332a6.0943 11.0554 0 0 1 .1426.2852 6.0943 11.0554 0 0 0-.1426-.2851zm.1563.3126a6.0943 11.0554 0 0 1 .1562.3379 6.0943 11.0554 0 0 0-.1562-.338zm.1816.3965a6.0943 11.0554 0 0 1 .1328.3183 6.0943 11.0554 0 0 0-.1328-.3183zm.17.4062a6.0943 11.0554 0 0 1 .0937.2461 6.0943 11.0554 0 0 0-.0938-.246zm.2988.832a6.0943 11.0554 0 0 1 .0898.2832 6.0943 11.0554 0 0 0-.0898-.2832zm.2539.8614a6.0943 11.0554 0 0 1 .0976.3906 6.0943 11.0554 0 0 0-.0976-.3906zm.1074.4297a6.0943 11.0554 0 0 1 .0879.3945 6.0943 11.0554 0 0 0-.088-.3945zm.1035.4746a6.0943 11.0554 0 0 1 .086.4453 6.0943 11.0554 0 0 1 .078.4746 6.0943 11.0554 0 0 1 .047.334 6.0943 11.0554 0 0 0-.047-.334 6.0943 11.0554 0 0 0-.078-.4746 6.0943 11.0554 0 0 0-.086-.4453zm.2871 1.8965a6.0943 11.0554 0 0 1 .0215.2324 6.0943 11.0554 0 0 0-.0215-.2324z" paint-order="stroke markers fill"/>
    </g>
    <path id="sun-convective-right-2" fill="url(#radialGradient30397)" stroke-opacity="1" stroke-width="2.2288" d="M73.9102 126.8262a29.4459 53.4164 0 0 0 1.5117.1797 29.4459 53.4164 0 0 0 29.4472-53.416 29.4459 53.4164 0 0 0-28.8398-53.3926L75.416 38.494a19.3473 35.097 0 0 1 .006-.002 19.3473 35.097 0 0 1 19.3476 35.0977 19.3473 35.097 0 0 1-19.3477 35.0957 19.3473 35.097 0 0 1-.0098-.002z" paint-order="stroke markers fill" transform="translate(-4.247 -2.4137)"/>
    <path id="sun-convective-right-1" fill="url(#radialGradient3874)" stroke-opacity="1" stroke-width="2.2288" d="M73.9102 126.8262l1.502-18.1426a19.3473 35.097 0 0 1-19.336-35.0938A19.3473 35.097 0 0 1 75.416 38.4941l.6133-18.2968a29.4459 53.4164 0 0 0-.6074-.0254 29.4459 53.4164 0 0 0-29.4453 53.418 29.4459 53.4164 0 0 0 27.9336 53.2363z" paint-order="stroke markers fill" transform="translate(-4.247 -2.4137)"/>
    <path id="sun-convective-left" fill="url(#radialGradient1004)" stroke-opacity="0" stroke-width="2.9884" d="M71.1749 18.0003A53.1757 53.1755 0 0 0 17.999 71.1761a53.1757 53.1755 0 0 0 53.1758 53.1758A29.313 53.1755 0 0 1 41.8624 71.176a29.313 53.1755 0 0 1 29.3125-53.1758z" paint-order="stroke markers fill"/>
  </g>
</svg>
