<svg id="svg5" width="146.1587" height="106.8418" version="1.1" viewBox="0 0 146.1587 106.8418">
  <defs id="defs2">
    <radialGradient id="radialGradient1004" cx="76.7318" cy="70.2176" r="53.1757" fx="76.7318" fy="70.2176" gradientTransform="matrix(1.15863 0 0 1.15862 -11.2904 -11.29)" gradientUnits="userSpaceOnUse" xlink:href="#linearGradient1002"/>
    <radialGradient id="radialGradient21083" cx="73.9648" cy="78.6784" r="8.5742" fx="73.9648" fy="78.6784" gradientTransform="matrix(1.45038 0 0 1.87013 -37.2503 -70.7657)" gradientUnits="userSpaceOnUse" xlink:href="#linearGradient46694"/>
    <radialGradient id="radialGradient25047" cx="74.6084" cy="81.4014" r="11.0557" fx="74.6084" fy="81.4014" gradientTransform="matrix(1.58924 0 0 1.58476 -48.0108 -51.6383)" gradientUnits="userSpaceOnUse" xlink:href="#linearGradient46694"/>
    <radialGradient id="radialGradient28554" cx="76.7318" cy="70.2176" r="53.1757" fx="76.7318" fy="70.2176" gradientTransform="matrix(.62608 0 0 .62607 26.632 26.6147)" gradientUnits="userSpaceOnUse" xlink:href="#linearGradient47991"/>
    <radialGradient id="radialGradient44118" cx="71.1755" cy="71.1749" r="15.8384" fx="71.1755" fy="71.1749" gradientTransform="matrix(1 0 0 1.8141 -12.576 -75.702)" gradientUnits="userSpaceOnUse" xlink:href="#linearGradient44286"/>
    <radialGradient id="radialGradient48742" cx="71.1765" cy="71.1754" r="29.4465" fx="71.1765" fy="71.1754" gradientTransform="matrix(1 0 0 1.81404 -12.576 -75.6977)" gradientUnits="userSpaceOnUse" xlink:href="#linearGradient43838"/>
    <linearGradient id="linearGradient47991">
      <stop id="stop47983" offset="0" stop-color="#fff1c6" stop-opacity="1"/>
      <stop id="stop47985" offset=".6546" stop-color="#ffca27" stop-opacity="1"/>
      <stop id="stop47987" offset=".8525" stop-color="#ed9e00" stop-opacity="1"/>
      <stop id="stop47989" offset="1" stop-color="#fff566" stop-opacity="1"/>
    </linearGradient>
    <linearGradient id="linearGradient46694">
      <stop id="stop46686" offset="0" stop-color="#db9600" stop-opacity="1"/>
      <stop id="stop46688" offset=".481" stop-color="#ffb522" stop-opacity="1"/>
      <stop id="stop46690" offset=".8525" stop-color="#e68d00" stop-opacity="1"/>
      <stop id="stop46692" offset="1" stop-color="#bc7700" stop-opacity="1"/>
    </linearGradient>
    <linearGradient id="linearGradient44286">
      <stop id="stop44278" offset="0" stop-color="#fff1c6" stop-opacity="1"/>
      <stop id="stop44280" offset=".6546" stop-color="#ffc205" stop-opacity="1"/>
      <stop id="stop44282" offset=".8525" stop-color="#ed9e00" stop-opacity="1"/>
      <stop id="stop44284" offset="1" stop-color="#ec9500" stop-opacity="1"/>
    </linearGradient>
    <linearGradient id="linearGradient43838">
      <stop id="stop43830" offset="0" stop-color="#ffc922" stop-opacity="1"/>
      <stop id="stop43832" offset=".445" stop-color="#c08b0d" stop-opacity="1"/>
      <stop id="stop43834" offset=".8525" stop-color="#c68700" stop-opacity="1"/>
      <stop id="stop43836" offset="1" stop-color="#9d740c" stop-opacity="1"/>
    </linearGradient>
    <linearGradient id="linearGradient1002">
      <stop id="stop998" offset="0" stop-color="#ffc922" stop-opacity="1"/>
      <stop id="stop2416" offset=".445" stop-color="#e9dec4" stop-opacity="1"/>
      <stop id="stop1966" offset=".8525" stop-color="#ac9072" stop-opacity="1"/>
      <stop id="stop1000" offset="1" stop-color="#f6f0e2" stop-opacity="1"/>
    </linearGradient>
    <linearGradient id="linearGradient8132">
      <stop id="stop8128" offset="0" stop-color="#ffce00" stop-opacity="1"/>
      <stop id="stop8130" offset="1" stop-color="#ffce00" stop-opacity="0"/>
    </linearGradient>
  </defs>
  <g id="layer1" fill="none" transform="translate(-35.7443 -34.6891)">
    <path id="path1563" stroke="#000" stroke-linecap="butt" stroke-linejoin="miter" stroke-opacity="0" stroke-width="1" d="M9.802 104.703c11.1895-5.7428 23.735-8.8215 36.3119-8.911a132.8835 132.8835 0 0 1 1.5594 0c6.3836.0293 12.8283.213 19.0855-1.0515 6.2573-1.2646 12.4247-4.1503 16.3353-9.196 2.7658-3.5686 4.2519-8.0637 4.4042-12.5762.1524-4.5124-.997-9.0304-3.0676-13.0426-2.0775-4.0255-5.0322-7.5167-7.8212-11.0864-2.789-3.5696-5.4754-7.3302-6.8818-11.6363-2.2717-6.9557-.7984-15.0156 3.7872-20.7179"/>
    <path id="path1567" stroke="#000" stroke-linecap="butt" stroke-linejoin="miter" stroke-opacity="0" stroke-width="1" d="M31.4109 132.995c-.8394-4.1396-.4892-8.5135.9982-12.4669 1.4874-3.9533 4.1072-7.4733 7.4671-10.033 3.4027-2.5923 7.467-4.1671 11.5591-5.4133 4.0921-1.2462 8.2793-2.2 12.2776-3.7204C72.2705 98.107 79.8062 92.3182 88.6634 90c2.2006-.576 4.4793-.93 6.7495-.7861 2.2702.1438 4.5388.8063 6.394 2.1227 1.7643 1.252 3.097 3.0543 3.9771 5.0305.88 1.9762 1.325 4.1246 1.5224 6.2788.3948 4.3086-.1787 8.6534.0698 12.973.4712 8.1873 4.0128 16.162 9.771 22.0013 5.7583 5.8394 13.6826 9.4922 21.8627 10.0778"/>
    <path id="path1571" stroke="#000" stroke-linecap="butt" stroke-linejoin="miter" stroke-opacity="0" stroke-width="1" d="M155.495 132.5495c-8.371 1.9876-17.1554 2.2168-25.6188.6683-3.905-.7144-7.8345-1.8472-11.0365-4.194-1.601-1.1733-2.9983-2.645-3.9798-4.3702-.9815-1.7253-1.5364-3.7094-1.4688-5.6932.0747-2.1906.8866-4.2791 1.6572-6.331.7705-2.052 1.5202-4.176 1.4616-6.367-.0699-2.613-1.2958-5.0784-2.8908-7.1492-1.5951-2.071-3.56-3.821-5.3921-5.6854-1.832-1.8646-3.5684-3.8999-4.5562-6.32-.494-1.21-.7922-2.5077-.7949-3.8147-.003-1.307.297-2.6233.936-3.7634.5899-1.0525 1.4604-1.9392 2.4758-2.591 1.0154-.6518 2.1727-1.0718 3.3624-1.2728 2.3794-.402 4.8428.0696 7.0826.9678 3.629 1.4552 6.7219 3.9769 9.608 6.6147 2.886 2.638 5.6478 5.4456 8.882 7.6427 4.532 3.0785 9.9306 4.8661 15.4042 5.1007 5.4736.2346 11.0053-1.0846 15.784-3.764"/>
    <path id="path1575" stroke="#000" stroke-linecap="butt" stroke-linejoin="miter" stroke-opacity="0" stroke-width="1" d="M166.1881 70.6188c-2.3517 3.9203-5.7766 7.1895-9.802 9.3564-5.2131 2.8065-11.3896 3.7229-17.2236 2.714-5.834-1.009-11.3006-3.9111-15.5239-8.0605-1.925-1.8912-3.595-4.0278-5.5105-5.9286-1.9155-1.9007-4.1425-3.5944-6.742-4.319-2.0158-.5617-4.1445-.5125-6.2364-.4555-2.0918.057-4.2194.1132-6.2388-.4355-2.0204-.549-3.8605-1.6991-5.3092-3.2106-1.4487-1.5115-2.5111-3.376-3.165-5.3648-1.3076-3.978-.972-8.3546.2316-12.3652 2.1715-7.2357 7.1952-13.5733 13.7442-17.339 6.549-3.7657 14.5535-4.9193 21.8994-3.156"/>
    <path id="path1579" stroke="#000" stroke-linecap="butt" stroke-linejoin="miter" stroke-opacity="0" stroke-width="1" d="M65.7178 130.3218c-.7413-.4369-1.3254-1.1245-1.6703-1.9128s-.4542-1.6727-.3483-2.5266c.2119-1.7079 1.2719-3.2364 2.6464-4.2718 1.3746-1.0353 3.0417-1.62 4.727-1.968 1.6854-.3479 3.4073-.4735 5.1155-.6822 2.684-.3279 5.343-.8622 8.038-1.0815 2.695-.2193 5.4659-.1117 8.0082.8091 1.2711.4605 2.4745 1.1237 3.502 2.0024 1.0274.8787 1.876 1.9761 2.4102 3.218.5342 1.242.7472 2.6294.5479 3.9666-.1994 1.3372-.8193 2.618-1.7885 3.5606-1.374 1.3366-3.3574 1.9163-5.274 1.8947-1.9168-.0217-3.7864-.5916-5.5697-1.2945-1.7833-.703-3.5133-1.5444-5.3322-2.1492-1.819-.6047-3.761-.9692-5.6557-.6787-1.5978.245-3.0872.9418-4.6456 1.371-.7792.2147-1.5829.363-2.391.3491-.808-.0139-1.6236-.1959-2.3199-.6062z"/>
    <path id="path1583" stroke="#000" stroke-linecap="butt" stroke-linejoin="miter" stroke-opacity="0" stroke-width=".9554" d="M46.0283 68.7862c-1.1854.0388-2.3757-.2862-3.3943-.8938-1.0186-.6075-1.865-1.4928-2.4552-2.5215-1.1805-2.0575-1.2934-4.6383-.5291-6.8839.7643-2.2456 2.3481-4.1608 4.2685-5.5532 1.9204-1.3925 4.166-2.2877 6.4669-2.8644 1.7397-.436 3.5342-.6977 5.326-.618 1.7917.0797 3.5844.5103 5.1463 1.3918 1.562.8816 2.8826 2.2305 3.5946 3.8766.7121 1.6462.78 3.59.049 5.228-.479 1.0732-1.277 1.9859-2.2107 2.6998-.9337.7139-2.001 1.2373-3.1006 1.6522-2.1993.83-4.5444 1.2408-6.7134 2.1468-1.0626.444-2.0734 1.0029-3.1274 1.4667-1.054.4638-2.1696.8354-3.3206.873z"/>
    <path id="path1845" stroke-width="2.538" d="M133.25 97l-198.4356 59.6232-118.0251-170.2989 125.4921-164.8737 195.5835 68.4013z" transform="translate(23.1683 16.9307)"/>
  </g>
  <g id="layer2" fill-opacity="1" transform="translate(-12.576 -17.7584)">
    <path id="venus-interior" fill="#533c00" stroke-width=".3111" d="M58.6035 106.834l-.0039-.2403V82.1484A15.8384 28.7325 0 0 1 42.7617 53.416a15.8384 28.7325 0 0 1 15.838-28.7324A15.8384 28.7325 0 0 1 74.4374 53.416a15.8384 28.7325 0 0 1-15.8379 28.7324v24.4454z" display="inline" transform="translate(12.576 17.7584)"/>
    <path id="venus-mantle-right-2" fill="url(#radialGradient48742)" stroke-width=".3111" d="M58.5469 106.8281a29.4465 53.417 0 0 0 .0527.006 29.4465 53.417 0 0 0 .0039 0A29.4465 53.417 0 0 0 88.0469 53.418 29.4465 53.417 0 0 0 58.5996 0a29.4465 53.417 0 0 0-.0527.0078l.0527.2344v24.4414A15.838 28.7325 0 0 1 74.4375 53.416a15.838 28.7325 0 0 1-15.8379 28.7324v24.4454z" display="inline" transform="translate(12.576 17.7584)"/>
    <path id="venus-outer-core-left" fill="url(#radialGradient28554)" stroke="none" stroke-opacity="0" stroke-width="1.6148" d="M71.193 42.442a28.734 28.734 0 0 0-28.7342 28.7341 28.734 28.734 0 0 0 28.7341 28.734 15.8396 28.734 0 0 1-15.8393-28.734 15.8396 28.734 0 0 1 15.8393-28.734z" paint-order="stroke markers fill"/>
    <path id="venus-outer-core-right-2" fill="url(#radialGradient44118)" stroke-width=".1673" d="M58.5996 82.1484A15.8384 28.7325 0 0 0 74.4375 53.416a15.8384 28.7325 0 0 0-15.8379-28.7324v19.9766a4.8275 8.7574 0 0 1 .006-.002 8.7564 8.7564 0 0 1 8.7558 8.7578 8.7564 8.7564 0 0 1-8.709 8.752 4.8275 8.7574 0 0 1-.0137.002 4.8275 8.7574 0 0 1-.0332.0038 4.8275 8.7574 0 0 1-.0059-.002z" transform="translate(12.576 17.7584)"/>
    <path id="venus-inner-core-left" fill="url(#radialGradient25047)" stroke="none" stroke-dasharray="none" stroke-miterlimit="4" stroke-opacity="1" stroke-width="12.83" d="M71.206 62.4176a8.7822 8.7574 0 0 1 .4266.0108 8.7811 8.7564 0 0 0-.4267-.0108zm0 0a8.7822 8.7574 0 0 0-8.7832 8.7568 8.7822 8.7574 0 0 0 8.7831 8.7583 4.8412 8.7574 0 0 1-4.8407-8.7568 4.8412 8.7574 0 0 1 4.8407-8.7583zm0 17.5151a8.7822 8.7574 0 0 0 5.7684-2.1598 8.7811 8.7564 0 0 1-5.722 2.1536 4.8412 8.7574 0 0 1-.0124.0016 4.8412 8.7574 0 0 1-.034.0047zm5.7684-2.1598a8.7822 8.7574 0 0 0 2.2233-2.9736 8.7811 8.7564 0 0 1-2.2233 2.9736zm2.2233-2.9736a8.7822 8.7574 0 0 0 .436-1.1665 8.7811 8.7564 0 0 1-.436 1.1665zm.436-1.1665a8.7822 8.7574 0 0 0 .2638-1.216 8.7811 8.7564 0 0 1-.2638 1.216zm-7.9484-11.2013a8.7822 8.7574 0 0 1 .3553.0263 8.7811 8.7564 0 0 0-.3553-.0263zm.3553.0263a8.7811 8.7564 0 0 1 .163.0185 8.7822 8.7574 0 0 0-.163-.0185zm.163.0185a8.7822 8.7574 0 0 1 .2575.031 8.7811 8.7564 0 0 0-.2576-.031zm.2575.031a8.7811 8.7564 0 0 1 .135.0232 8.7822 8.7574 0 0 0-.135-.0232zm.135.0232a8.7822 8.7574 0 0 1 .301.0526 8.7811 8.7564 0 0 0-.301-.0526zm.377.068a8.7822 8.7574 0 0 1 .3398.0759 8.7811 8.7564 0 0 0-.3398-.0758zm.4282.0991a8.7822 8.7574 0 0 1 .3072.085 8.7811 8.7564 0 0 0-.3072-.085zm.3072.085a8.7811 8.7564 0 0 1 .1148.0357 8.7822 8.7574 0 0 0-.1148-.0356zm.1148.0357a8.7822 8.7574 0 0 1 .2901.0943 8.7811 8.7564 0 0 0-.29-.0943zm.2901.0943a8.7811 8.7564 0 0 1 .1195.0434 8.7822 8.7574 0 0 0-.1195-.0434zm.1195.0434a8.7822 8.7574 0 0 1 .2684.1036 8.7811 8.7564 0 0 0-.2684-.1036zm.2684.1036a8.7811 8.7564 0 0 1 .1272.0526 8.7822 8.7574 0 0 0-.1272-.0526zm.1272.0526a8.7822 8.7574 0 0 1 .2824.1254 8.7811 8.7564 0 0 0-.2824-.1254zm.2824.1254a8.7811 8.7564 0 0 1 .0869.0402 8.7822 8.7574 0 0 0-.0869-.0402zm.0869.0402a8.7822 8.7574 0 0 1 .2607.13 8.7811 8.7564 0 0 0-.2607-.13zm.2607.13a8.7811 8.7564 0 0 1 .152.0804 8.7822 8.7574 0 0 0-.152-.0805zm.152.0804a8.7822 8.7574 0 0 1 .1846.1036 8.7811 8.7564 0 0 0-.1846-.1036zm.1846.1036a8.7811 8.7564 0 0 1 .1831.1083 8.7822 8.7574 0 0 0-.183-.1083zm.1831.1083a8.7822 8.7574 0 0 1 .2607.1656 8.7811 8.7564 0 0 0-.2607-.1656zm.315.1996a8.7822 8.7574 0 0 1 .3304.232 8.7811 8.7564 0 0 0-.3304-.232zm.346.2445a8.7822 8.7574 0 0 1 .3087.2382 8.7811 8.7564 0 0 0-.3087-.2382zm.3428.266a8.7822 8.7574 0 0 1 .2483.2136 8.7811 8.7564 0 0 0-.2483-.2135zm.976.936a8.7822 8.7574 0 0 1 .2358.274 8.7811 8.7564 0 0 0-.2359-.274zm.2358.274a8.7822 8.7574 0 0 1 .2622.3357 8.7811 8.7564 0 0 0-.2622-.3358zm.2746.3511a8.7822 8.7574 0 0 1 .2327.3296 8.7811 8.7564 0 0 0-.2327-.3296zm.2669.3837a8.7822 8.7574 0 0 1 .166.26 8.7811 8.7564 0 0 0-.166-.26zm.166.26a8.7811 8.7564 0 0 1 .1086.1825 8.7822 8.7574 0 0 0-.1086-.1826zm.1086.1825a8.7822 8.7574 0 0 1 .104.1841 8.7811 8.7564 0 0 0-.104-.184zm.104.1841a8.7811 8.7564 0 0 1 .0884.1671 8.7822 8.7574 0 0 0-.0885-.167zm.0884.1671a8.7822 8.7574 0 0 1 .104.2058 8.7811 8.7564 0 0 0-.104-.2058zm.104.2058a8.7811 8.7564 0 0 1 .0821.1748 8.7822 8.7574 0 0 0-.0822-.1748zm.0821.1748a8.7822 8.7574 0 0 1 .0993.2228 8.7811 8.7564 0 0 0-.0993-.2228zm.0993.2228a8.7811 8.7564 0 0 1 .0543.133 8.7822 8.7574 0 0 0-.0543-.133zm.0543.133a8.7822 8.7574 0 0 1 .1133.2925 8.7811 8.7564 0 0 0-.1133-.2925zm.1133.2925a8.7811 8.7564 0 0 1 .031.0835 8.7822 8.7574 0 0 0-.031-.0835zm.031.0835a8.7822 8.7574 0 0 1 .1009.3063 8.7811 8.7564 0 0 0-.1009-.3063zm.1009.3063a8.7811 8.7564 0 0 1 .0341.1114 8.7822 8.7574 0 0 0-.0341-.1114zm.0341.1114a8.7822 8.7574 0 0 1 .0853.3064 8.7811 8.7564 0 0 0-.0853-.3064zm.1086.3946a8.7822 8.7574 0 0 1 .076.3388 8.7811 8.7564 0 0 0-.076-.3388zm.0916.4146a8.7822 8.7574 0 0 1 .0527.3001 8.7811 8.7564 0 0 0-.0527-.3001zm.0527.3001a8.7811 8.7564 0 0 1 .0233.1346 8.7822 8.7574 0 0 0-.0233-.1346zm.0233.1346a8.7822 8.7574 0 0 1 .031.2569 8.7811 8.7564 0 0 0-.031-.2569zm.031.2569a8.7811 8.7564 0 0 1 .0186.1624 8.7822 8.7574 0 0 0-.0186-.1624zm.0186.1624a8.7822 8.7574 0 0 1 .0264.3543 8.7811 8.7564 0 0 0-.0264-.3543zm.0295.4069a8.7822 8.7574 0 0 1 .0109.4255 8.7811 8.7564 0 0 0-.0109-.4255z"/>
    <path id="venus-inner-core-right" fill="url(#radialGradient21083)" stroke="none" stroke-opacity="0" stroke-width=".3654" d="M71.1812 62.4176a4.8275 8.7574 0 0 1 .2166.0093 4.8275 8.7574 0 0 1 .2166.0263 4.8275 8.7574 0 0 1 .215.0448 4.8275 8.7574 0 0 0-.215-.0448 4.8275 8.7574 0 0 0-.2166-.0263 4.8275 8.7574 0 0 0-.2166-.0093zm0 0a4.8275 8.7574 0 0 0-4.8271 8.7583 4.8275 8.7574 0 0 0 4.827 8.7568 4.8275 8.7574 0 0 0 .0341-.0047 4.8275 8.7574 0 0 0 .0124-.0016 8.7564 8.7564 0 0 0 8.7104-8.752 8.7564 8.7564 0 0 0-8.7568-8.7569zm.9437.1701a4.8275 8.7574 0 0 1 .1207.0464 4.8275 8.7574 0 0 0-.1207-.0464zm.4379.198a4.8275 8.7574 0 0 1 .0897.048 4.8275 8.7574 0 0 0-.0897-.048zm.1964.1146a4.8275 8.7574 0 0 1 .0929.0587 4.8275 8.7574 0 0 0-.0929-.0587zm.2074.1407a4.8275 8.7574 0 0 1 .0835.0604 4.8275 8.7574 0 0 0-.0835-.0604zm.164.1238a4.8275 8.7574 0 0 1 .1392.116 4.8275 8.7574 0 0 0-.1392-.116zm.1609.1346a4.8275 8.7574 0 0 1 .1624.15 4.8275 8.7574 0 0 0-.1624-.15zm.2042.1903a4.8275 8.7574 0 0 1 .1593.1656 4.8275 8.7574 0 0 0-.1593-.1656zm.167.1748a4.8275 8.7574 0 0 1 .178.2027 4.8275 8.7574 0 0 1 .1485.1841 4.8275 8.7574 0 0 0-.1485-.184 4.8275 8.7574 0 0 0-.178-.2028zm.4023.4874a4.8275 8.7574 0 0 1 .1006.1408 4.8275 8.7574 0 0 0-.1006-.1408zm.1594.2259a4.8275 8.7574 0 0 1 .1237.1872 4.8275 8.7574 0 0 0-.1237-.1872zm.1423.2181a4.8275 8.7574 0 0 1 .1253.2042 4.8275 8.7574 0 0 0-.1253-.2042zm.1888.3172a4.8275 8.7574 0 0 1 .0789.1439 4.8275 8.7574 0 0 0-.079-.144zm.1423.263a4.8275 8.7574 0 0 1 .113.2259 4.8275 8.7574 0 0 0-.113-.2259zm.1238.2475a4.8275 8.7574 0 0 1 .1237.2677 4.8275 8.7574 0 0 0-.1237-.2677zm.1439.3141a4.8275 8.7574 0 0 1 .1052.2522 4.8275 8.7574 0 0 0-.1052-.2522zm.1346.3218a4.8275 8.7574 0 0 1 .0742.195 4.8275 8.7574 0 0 0-.0742-.195zm.2367.6591a4.8275 8.7574 0 0 1 .0711.2243 4.8275 8.7574 0 0 0-.0711-.2243zm.2011.6823a4.8275 8.7574 0 0 1 .0774.3094 4.8275 8.7574 0 0 0-.0774-.3094zm.085.3404a4.8275 8.7574 0 0 1 .0697.3125 4.8275 8.7574 0 0 0-.0696-.3125zm.082.376a4.8275 8.7574 0 0 1 .0682.3527 4.8275 8.7574 0 0 1 .0619.376 4.8275 8.7574 0 0 1 .037.2645 4.8275 8.7574 0 0 0-.037-.2646 4.8275 8.7574 0 0 0-.062-.376 4.8275 8.7574 0 0 0-.068-.3527zm.2275 1.5022a4.8275 8.7574 0 0 1 .017.184 4.8275 8.7574 0 0 0-.017-.184z" paint-order="stroke markers fill"/>
    <path id="venus-outer-core-right-1" fill="url(#radialGradient44118)" stroke-width=".1673" d="M58.5996 82.1484V62.172a4.8275 8.7574 0 0 1-4.8223-8.754 4.8275 8.7574 0 0 1 4.8223-8.7577V24.6836A15.8384 28.7325 0 0 0 42.7617 53.416a15.8384 28.7325 0 0 0 15.838 28.7324z" transform="translate(12.576 17.7584)"/>
    <path id="venus-mantle-right-1" fill="url(#radialGradient48742)" stroke-width=".3111" d="M58.5469 106.8281l.0527-.2344V82.1484A15.838 28.7325 0 0 1 42.7617 53.416a15.838 28.7325 0 0 1 15.838-28.7324V.2422l-.0528-.2344A29.4465 53.417 0 0 0 29.1543 53.418a29.4465 53.417 0 0 0 29.3926 53.4101z" display="inline" transform="translate(12.576 17.7584)"/>
    <path id="venus-crust" fill="url(#radialGradient1004)" stroke="none" stroke-opacity="0" stroke-width="2.9884" d="M71.1749 18.0003A53.1757 53.1755 0 0 0 17.999 71.1761a53.1757 53.1755 0 0 0 53.1758 53.1758A29.313 53.1755 0 0 1 41.8624 71.176a29.313 53.1755 0 0 1 29.3125-53.1758z" paint-order="stroke markers fill"/>
  </g>
</svg>
